<?xml version="1.0" encoding="UTF-8" standalone="no"?>
<!-- Generator: Adobe Illustrator 19.1.0, SVG Export Plug-In . SVG Version: 6.00 Build 0)  -->

<svg
   version="1.1"
   id="Layer_1"
   x="0px"
   y="0px"
   viewBox="0 0 250 250"
   style="enable-background:new 0 0 250 250;"
   xml:space="preserve"
   sodipodi:docname="favicon.svg"
   inkscape:version="1.1 (c68e22c387, 2021-05-23)"
   xmlns:inkscape="http://www.inkscape.org/namespaces/inkscape"
   xmlns:sodipodi="http://sodipodi.sourceforge.net/DTD/sodipodi-0.dtd"
   xmlns="http://www.w3.org/2000/svg"
   xmlns:svg="http://www.w3.org/2000/svg"><defs
   id="defs15">
	
	
	
</defs><sodipodi:namedview
   id="namedview13"
   pagecolor="#ffffff"
   bordercolor="#666666"
   borderopacity="1.0"
   inkscape:pageshadow="2"
   inkscape:pageopacity="0.0"
   inkscape:pagecheckerboard="0"
   showgrid="false"
   inkscape:snap-page="true"
   inkscape:showpageshadow="false"
   borderlayer="true"
   inkscape:snap-bbox="true"
   inkscape:bbox-nodes="false"
   inkscape:snap-midpoints="true"
   inkscape:snap-bbox-midpoints="false"
   inkscape:snap-bbox-edge-midpoints="true"
   inkscape:zoom="1.564"
   inkscape:cx="104.21995"
   inkscape:cy="63.938619"
   inkscape:window-width="1920"
   inkscape:window-height="986"
   inkscape:window-x="2869"
   inkscape:window-y="-11"
   inkscape:window-maximized="1"
   inkscape:current-layer="Layer_1" />
<style
   type="text/css"
   id="style2">
	.st0{fill:#DD0031;}
	.st1{fill:#C3002F;}
	.st2{fill:#FFFFFF;}
</style>
<polygon
   class="st0"
   points="203.9,186.3 218.1,63.2 125,30 31.9,63.2 46.1,186.3 125,230 "
   id="polygon4"
   transform="matrix(1.25,0,0,1.25,-31.25,-37)"
   style="fill:#17bed2;fill-opacity:1" /><polygon
   class="st1"
   points="218.1,63.2 125,30 125,52.2 125,52.1 125,153.4 125,230 203.9,186.3 "
   id="polygon6"
   transform="matrix(1.25,0,0,1.25,-31.25,-37)"
   style="fill:#1782d2;fill-opacity:1" /><path
   class="st2"
   d="M 125,28.125 52.25,191.25 v 0 h 27.125 v 0 L 94,154.75 h 61.75 l 14.625,36.5 v 0 H 197.5 v 0 z m 21.25,104.125 h -42.5 L 125,81.125 Z"
   id="path8"
   style="stroke-width:1.25" />
</svg>
