<?xml version="1.0" encoding="UTF-8" standalone="no"?>
<svg
   viewBox="0 0 1200 268"
   version="1.1"
   id="svg15"
   sodipodi:docname="FACEBOOK.svg"
   width="1200"
   height="268"
   inkscape:version="1.1 (c68e22c387, 2021-05-23)"
   xmlns:inkscape="http://www.inkscape.org/namespaces/inkscape"
   xmlns:sodipodi="http://sodipodi.sourceforge.net/DTD/sodipodi-0.dtd"
   xmlns:xlink="http://www.w3.org/1999/xlink"
   xmlns="http://www.w3.org/2000/svg"
   xmlns:svg="http://www.w3.org/2000/svg">
  <defs
     id="defs19">
    <style
       type="text/css"
       id="style1103">
   <![CDATA[
    .fil0 {fill:#41ABE1}
   ]]>
  </style>
    <clipPath
       clipPathUnits="userSpaceOnUse"
       id="clipPath4674">
      <path
         d="M 0,500 H 1024 V 0 H 0 Z"
         id="path4676" />
    </clipPath>
    <rect
       id="SVGID_1_"
       y="0"
       width="66.900002"
       height="12.9"
       x="0" />
  </defs>
  <sodipodi:namedview
     id="namedview17"
     pagecolor="#ffffff"
     bordercolor="#666666"
     borderopacity="1.0"
     inkscape:pageshadow="2"
     inkscape:pageopacity="0.0"
     inkscape:pagecheckerboard="0"
     showgrid="false"
     borderlayer="true"
     inkscape:showpageshadow="false"
     inkscape:snap-bbox="true"
     inkscape:bbox-nodes="true"
     inkscape:snap-page="true"
     inkscape:object-nodes="false"
     inkscape:snap-midpoints="false"
     inkscape:snap-center="true"
     inkscape:zoom="0.73729675"
     inkscape:cx="615.76292"
     inkscape:cy="66.458994"
     inkscape:window-width="1920"
     inkscape:window-height="986"
     inkscape:window-x="2869"
     inkscape:window-y="-11"
     inkscape:window-maximized="1"
     inkscape:current-layer="svg15"
     inkscape:bbox-paths="true"
     inkscape:snap-bbox-edge-midpoints="true" />
  <rect
     style="fill:#dea7aa;fill-opacity:1;stroke-width:5.67098;stroke-linecap:round;stroke-linejoin:round"
     id="rect1737"
     width="1200"
     height="268"
     x="77.309441"
     y="-385.19089" />
  <g
     inkscape:groupmode="layer"
     id="layer3"
     inkscape:label="Layer 1"
     style="display:inline" />
  <g
     id="g4672"
     clip-path="url(#clipPath4674)"
     transform="matrix(1.0041402,0,0,-1.0041402,-124.06484,389.05181)">
    <g
       id="g4678"
       transform="translate(375.7163,120.5527)">
      <path
         d="m 0,0 c 8.134,0 14.73,6.596 14.73,14.73 v 237.434 c 0,8.137 -6.596,14.731 -14.73,14.731 h -237.433 c -8.137,0 -14.73,-6.594 -14.73,-14.731 V 14.73 c 0,-8.134 6.593,-14.73 14.73,-14.73 z"
         style="fill:#3b5998;fill-opacity:1;fill-rule:nonzero;stroke:none"
         id="path4680" />
    </g>
    <g
       id="g4682"
       transform="translate(307.7046,120.5527)">
      <path
         d="m 0,0 v 103.355 h 34.693 l 5.194,40.28 H 0 v 25.717 c 0,11.662 3.238,19.609 19.962,19.609 l 21.33,0.01 v 36.026 c -3.69,0.49 -16.351,1.587 -31.081,1.587 -30.753,0 -51.806,-18.771 -51.806,-53.244 v -29.705 h -34.781 v -40.28 h 34.781 L -41.595,0 Z"
         style="fill:#ffffff;fill-opacity:1;fill-rule:nonzero;stroke:none"
         id="path4684" />
    </g>
  </g>
  <style
     type="text/css"
     id="style2934">
	.st0{clip-path:url(#SVGID_2_);fill:#4967A9;}
</style>
  <g
     id="g2958"
     transform="matrix(13.370733,0,0,13.370733,305.49796,47.758775)">
	<defs
   id="defs2937">
		<rect
   id="rect2967"
   y="0"
   width="66.900002"
   height="12.9"
   x="0" />

	</defs>

	<clipPath
   id="SVGID_2_">
		<use
   xlink:href="#SVGID_1_"
   style="overflow:visible"
   id="use2939"
   x="0"
   y="0"
   width="100%"
   height="100%" />

	</clipPath>

	<path
   class="st0"
   d="m 5.2,2 c -0.8,0 -1,0.4 -1,1.1 V 4.4 H 6.3 L 6.1,6.5 H 4.2 v 6.3 H 1.7 V 6.5 H 0 V 4.4 H 1.7 V 3.2 C 1.7,1.1 2.5,0 4.9,0 5.4,0 6,0 6.3,0.1 V 2"
   clip-path="url(#SVGID_2_)"
   id="path2942" />

	<path
   class="st0"
   d="M 6.5,8.3 C 6.5,6 7.6,4.2 9.9,4.2 c 1.3,0 2,0.6 2.4,1.5 V 4.4 h 2.4 v 8.3 h -2.4 v -1.3 c -0.4,0.8 -1.1,1.4 -2.4,1.4 -2.3,0 -3.4,-1.7 -3.4,-4.1 M 9,8.9 c 0,1.2 0.5,2.1 1.6,2.1 1,0 1.6,-0.8 1.6,-1.9 V 8.2 C 12.2,7 11.7,6.3 10.6,6.3 9.5,6.2 9,7.1 9,8.3 Z"
   clip-path="url(#SVGID_2_)"
   id="path2944" />

	<path
   class="st0"
   d="m 20,4.3 c 1,0 1.9,0.2 2.4,0.6 l -0.6,1.8 c -0.4,-0.2 -1,-0.4 -1.7,-0.4 -1.4,0 -2,0.8 -2,2.1 v 0.5 c 0,1.3 0.6,2.1 2,2.1 0.7,0 1.3,-0.2 1.7,-0.4 l 0.6,1.8 C 21.9,12.8 21,13 20,13 17,13 15.7,11.4 15.7,8.9 V 8.4 C 15.7,5.8 17,4.3 20,4.3"
   clip-path="url(#SVGID_2_)"
   id="path2946" />

	<path
   class="st0"
   d="M 22.7,8.9 V 8.2 c 0,-2.4 1.3,-3.9 4.1,-3.9 2.6,0 3.7,1.6 3.7,3.9 v 1.3 h -5.3 c 0.1,1.1 0.6,1.6 2,1.6 0.9,0 1.9,-0.2 2.7,-0.5 l 0.5,1.7 c -0.7,0.3 -2,0.6 -3.2,0.6 -3.3,0 -4.5,-1.5 -4.5,-4 m 2.5,-1.1 h 3 V 7.6 C 28.2,6.7 27.8,6 26.7,6 c -1,0 -1.5,0.7 -1.5,1.8"
   clip-path="url(#SVGID_2_)"
   id="path2948" />

	<path
   class="st0"
   d="m 39.9,8.9 c 0,2.3 -1.1,4.1 -3.4,4.1 -1.3,0 -2.1,-0.6 -2.5,-1.4 v 1.3 H 31.6 V 0.2 L 34.1,0 v 5.6 c 0.4,-0.7 1.2,-1.3 2.3,-1.3 2.3,0 3.4,1.7 3.4,4.1 M 37.4,8.3 c 0,-1.2 -0.5,-2 -1.7,-2 -1,0 -1.6,0.7 -1.6,1.9 V 9 c 0,1.2 0.6,1.9 1.6,1.9 1.2,0 1.7,-0.9 1.7,-2 z"
   clip-path="url(#SVGID_2_)"
   id="path2950" />

	<path
   class="st0"
   d="M 40.7,8.8 V 8.4 C 40.7,6 42.1,4.3 44.8,4.3 47.6,4.3 49,6 49,8.4 v 0.4 c 0,2.4 -1.4,4.1 -4.1,4.1 -2.8,0 -4.2,-1.7 -4.2,-4.1 m 5.8,-0.6 c 0,-1.1 -0.5,-2 -1.6,-2 -1.2,0 -1.6,0.9 -1.6,2 V 9 c 0,1.1 0.5,2 1.6,2 1.2,0 1.6,-0.9 1.6,-2 z"
   clip-path="url(#SVGID_2_)"
   id="path2952" />

	<path
   class="st0"
   d="M 49.8,8.8 V 8.4 C 49.8,6 51.2,4.3 53.9,4.3 56.7,4.3 58,6 58,8.4 v 0.4 c 0,2.4 -1.4,4.1 -4.1,4.1 -2.7,0 -4.1,-1.7 -4.1,-4.1 m 5.8,-0.6 c 0,-1.1 -0.5,-2 -1.6,-2 -1.2,0 -1.6,0.9 -1.6,2 V 9 c 0,1.1 0.5,2 1.6,2 1.2,0 1.6,-0.9 1.6,-2 z"
   clip-path="url(#SVGID_2_)"
   id="path2954" />

	<polyline
   class="st0"
   points="61.6,8.4 64.1,4.4 66.8,4.4 64.1,8.5 66.9,12.8 64.2,12.8 61.6,8.7 61.6,12.8 59.1,12.8 59.1,0.2    61.6,0  "
   clip-path="url(#SVGID_2_)"
   id="polyline2956" />

</g>
  <rect
     style="fill:#dea7aa;fill-opacity:1;stroke-width:7.67007;stroke-linecap:round;stroke-linejoin:round"
     id="rect3163"
     width="122.7588"
     height="268"
     x="-176.15691"
     y="-294.73322" />
</svg>
