<?xml version="1.0" encoding="UTF-8" standalone="no"?>
<svg
   viewBox="0 0 1200 268"
   version="1.1"
   id="svg15"
   sodipodi:docname="instagram-logo-grey.svg"
   width="1200"
   height="268"
   inkscape:version="1.1 (c68e22c387, 2021-05-23)"
   xmlns:inkscape="http://www.inkscape.org/namespaces/inkscape"
   xmlns:sodipodi="http://sodipodi.sourceforge.net/DTD/sodipodi-0.dtd"
   xmlns:xlink="http://www.w3.org/1999/xlink"
   xmlns="http://www.w3.org/2000/svg"
   xmlns:svg="http://www.w3.org/2000/svg">
  <defs
     id="defs19">
    <style
       type="text/css"
       id="style1103">
   <![CDATA[
    .fil0 {fill:#41ABE1}
   ]]>
  </style>
    <clipPath
       clipPathUnits="userSpaceOnUse"
       id="clipPath4674">
      <path
         d="M 0,500 H 1024 V 0 H 0 Z"
         id="path4676" />
    </clipPath>
    <rect
       id="SVGID_1_"
       y="0"
       width="66.900002"
       height="12.9"
       x="0" />
    <linearGradient
       id="b">
      <stop
         offset="0"
         stop-color="#3771c8"
         id="stop3919" />
      <stop
         stop-color="#3771c8"
         offset=".128"
         id="stop3921" />
      <stop
         offset="1"
         stop-color="#60f"
         stop-opacity="0"
         id="stop3923" />
    </linearGradient>
    <linearGradient
       id="a">
      <stop
         offset="0"
         stop-color="#fd5"
         id="stop3926" />
      <stop
         offset=".1"
         stop-color="#fd5"
         id="stop3928" />
      <stop
         offset=".5"
         stop-color="#ff543e"
         id="stop3930" />
      <stop
         offset="1"
         stop-color="#c837ab"
         id="stop3932" />
    </linearGradient>
    <radialGradient
       id="c"
       cx="158.429"
       cy="578.088"
       r="65"
       xlink:href="#a"
       gradientUnits="userSpaceOnUse"
       gradientTransform="matrix(0,-4.0851291,3.8005276,0,-2125.8521,935.76372)"
       fx="158.429"
       fy="578.088" />
    <radialGradient
       id="d"
       cx="147.694"
       cy="473.455"
       r="65"
       xlink:href="#b"
       gradientUnits="userSpaceOnUse"
       gradientTransform="matrix(0.35851389,1.7905495,-7.3825748,1.4782051,3432.5137,-1109.9733)"
       fx="147.694"
       fy="473.455" />
  </defs>
  <sodipodi:namedview
     id="namedview17"
     pagecolor="#ffffff"
     bordercolor="#666666"
     borderopacity="1.0"
     inkscape:pageshadow="2"
     inkscape:pageopacity="0.0"
     inkscape:pagecheckerboard="0"
     showgrid="false"
     borderlayer="true"
     inkscape:showpageshadow="false"
     inkscape:snap-bbox="true"
     inkscape:bbox-nodes="true"
     inkscape:snap-page="true"
     inkscape:object-nodes="false"
     inkscape:snap-midpoints="false"
     inkscape:snap-center="true"
     inkscape:zoom="0.52134753"
     inkscape:cx="491.03522"
     inkscape:cy="168.79336"
     inkscape:window-width="1920"
     inkscape:window-height="986"
     inkscape:window-x="2869"
     inkscape:window-y="-11"
     inkscape:window-maximized="1"
     inkscape:current-layer="svg15"
     inkscape:bbox-paths="true"
     inkscape:snap-bbox-edge-midpoints="true" />
  <g
     inkscape:groupmode="layer"
     id="layer3"
     inkscape:label="Layer 1"
     style="display:inline" />
  <g
     id="g4678"
     transform="matrix(1.0041402,0,0,-1.0041402,390.19391,636.91523)"
     style="fill:#a6a7aa;fill-opacity:1">
    <path
       d="m 0,0 c 8.134,0 14.73,6.596 14.73,14.73 v 237.434 c 0,8.137 -6.596,14.731 -14.73,14.731 h -237.433 c -8.137,0 -14.73,-6.594 -14.73,-14.731 V 14.73 c 0,-8.134 6.593,-14.73 14.73,-14.73 z"
       style="fill:#a6a7aa;fill-opacity:1;fill-rule:nonzero;stroke:none"
       id="path4680" />
  </g>
  <g
     id="g4682"
     transform="matrix(1.0041402,0,0,-1.0041402,321.90063,636.91523)"
     style="fill:#ffffff;fill-opacity:1">
    <path
       d="m 0,0 v 103.355 h 34.693 l 5.194,40.28 H 0 v 25.717 c 0,11.662 3.238,19.609 19.962,19.609 l 21.33,0.01 v 36.026 c -3.69,0.49 -16.351,1.587 -31.081,1.587 -30.753,0 -51.806,-18.771 -51.806,-53.244 v -29.705 h -34.781 v -40.28 h 34.781 L -41.595,0 Z"
       style="fill:#ffffff;fill-opacity:1;fill-rule:nonzero;stroke:none"
       id="path4684" />
  </g>
  <style
     type="text/css"
     id="style2934">
	.st0{clip-path:url(#SVGID_2_);fill:#4967A9;}
</style>
  <g
     id="g2958"
     transform="matrix(13.370733,0,0,13.370733,262.09617,799.1523)"
     style="fill:#a6a7aa;fill-opacity:1">
	<defs
   id="defs2937">
		<rect
   id="rect2967"
   y="0"
   width="66.900002"
   height="12.9"
   x="0" />

	</defs>

	<clipPath
   id="SVGID_2_">
		<use
   xlink:href="#SVGID_1_"
   style="overflow:visible"
   id="use2939"
   x="0"
   y="0"
   width="100%"
   height="100%" />

	</clipPath>

	<path
   class="st0"
   d="m 5.2,2 c -0.8,0 -1,0.4 -1,1.1 V 4.4 H 6.3 L 6.1,6.5 H 4.2 v 6.3 H 1.7 V 6.5 H 0 V 4.4 H 1.7 V 3.2 C 1.7,1.1 2.5,0 4.9,0 5.4,0 6,0 6.3,0.1 V 2"
   clip-path="url(#SVGID_2_)"
   id="path2942"
   style="fill:#a6a7aa;fill-opacity:1" />

	<path
   class="st0"
   d="M 6.5,8.3 C 6.5,6 7.6,4.2 9.9,4.2 c 1.3,0 2,0.6 2.4,1.5 V 4.4 h 2.4 v 8.3 h -2.4 v -1.3 c -0.4,0.8 -1.1,1.4 -2.4,1.4 -2.3,0 -3.4,-1.7 -3.4,-4.1 M 9,8.9 c 0,1.2 0.5,2.1 1.6,2.1 1,0 1.6,-0.8 1.6,-1.9 V 8.2 C 12.2,7 11.7,6.3 10.6,6.3 9.5,6.2 9,7.1 9,8.3 Z"
   clip-path="url(#SVGID_2_)"
   id="path2944"
   style="fill:#a6a7aa;fill-opacity:1" />

	<path
   class="st0"
   d="m 20,4.3 c 1,0 1.9,0.2 2.4,0.6 l -0.6,1.8 c -0.4,-0.2 -1,-0.4 -1.7,-0.4 -1.4,0 -2,0.8 -2,2.1 v 0.5 c 0,1.3 0.6,2.1 2,2.1 0.7,0 1.3,-0.2 1.7,-0.4 l 0.6,1.8 C 21.9,12.8 21,13 20,13 17,13 15.7,11.4 15.7,8.9 V 8.4 C 15.7,5.8 17,4.3 20,4.3"
   clip-path="url(#SVGID_2_)"
   id="path2946"
   style="fill:#a6a7aa;fill-opacity:1" />

	<path
   class="st0"
   d="M 22.7,8.9 V 8.2 c 0,-2.4 1.3,-3.9 4.1,-3.9 2.6,0 3.7,1.6 3.7,3.9 v 1.3 h -5.3 c 0.1,1.1 0.6,1.6 2,1.6 0.9,0 1.9,-0.2 2.7,-0.5 l 0.5,1.7 c -0.7,0.3 -2,0.6 -3.2,0.6 -3.3,0 -4.5,-1.5 -4.5,-4 m 2.5,-1.1 h 3 V 7.6 C 28.2,6.7 27.8,6 26.7,6 c -1,0 -1.5,0.7 -1.5,1.8"
   clip-path="url(#SVGID_2_)"
   id="path2948"
   style="fill:#a6a7aa;fill-opacity:1" />

	<path
   class="st0"
   d="m 39.9,8.9 c 0,2.3 -1.1,4.1 -3.4,4.1 -1.3,0 -2.1,-0.6 -2.5,-1.4 v 1.3 H 31.6 V 0.2 L 34.1,0 v 5.6 c 0.4,-0.7 1.2,-1.3 2.3,-1.3 2.3,0 3.4,1.7 3.4,4.1 M 37.4,8.3 c 0,-1.2 -0.5,-2 -1.7,-2 -1,0 -1.6,0.7 -1.6,1.9 V 9 c 0,1.2 0.6,1.9 1.6,1.9 1.2,0 1.7,-0.9 1.7,-2 z"
   clip-path="url(#SVGID_2_)"
   id="path2950"
   style="fill:#a6a7aa;fill-opacity:1" />

	<path
   class="st0"
   d="M 40.7,8.8 V 8.4 C 40.7,6 42.1,4.3 44.8,4.3 47.6,4.3 49,6 49,8.4 v 0.4 c 0,2.4 -1.4,4.1 -4.1,4.1 -2.8,0 -4.2,-1.7 -4.2,-4.1 m 5.8,-0.6 c 0,-1.1 -0.5,-2 -1.6,-2 -1.2,0 -1.6,0.9 -1.6,2 V 9 c 0,1.1 0.5,2 1.6,2 1.2,0 1.6,-0.9 1.6,-2 z"
   clip-path="url(#SVGID_2_)"
   id="path2952"
   style="fill:#a6a7aa;fill-opacity:1" />

	<path
   class="st0"
   d="M 49.8,8.8 V 8.4 C 49.8,6 51.2,4.3 53.9,4.3 56.7,4.3 58,6 58,8.4 v 0.4 c 0,2.4 -1.4,4.1 -4.1,4.1 -2.7,0 -4.1,-1.7 -4.1,-4.1 m 5.8,-0.6 c 0,-1.1 -0.5,-2 -1.6,-2 -1.2,0 -1.6,0.9 -1.6,2 V 9 c 0,1.1 0.5,2 1.6,2 1.2,0 1.6,-0.9 1.6,-2 z"
   clip-path="url(#SVGID_2_)"
   id="path2954"
   style="fill:#a6a7aa;fill-opacity:1" />

	<polyline
   class="st0"
   points="61.6,8.4 64.1,4.4 66.8,4.4 64.1,8.5 66.9,12.8 64.2,12.8 61.6,8.7 61.6,12.8 59.1,12.8 59.1,0.2    61.6,0  "
   clip-path="url(#SVGID_2_)"
   id="polyline2956"
   style="fill:#a6a7aa;fill-opacity:1" />

</g>
  <path
     fill="url(#c)"
     d="M 134.04273,0 C 78.099397,0 61.738105,0.05771179 58.557773,0.32153712 47.077249,1.2758428 39.933353,3.0834586 32.150506,6.9583931 26.152602,9.9367338 21.422296,13.389136 16.753825,18.228681 8.251641,27.054463 3.0988025,37.912525 1.233475,50.819354 0.32657543,57.085206 0.0627501,58.36311 0.00916058,90.36842 c -0.02061136,10.66844 0,24.70889 0,43.54149 0,55.89799 0.06183406,72.24279 0.32978166,75.41694 0.92751096,11.17135 2.67947606,18.19983 6.38951976,25.88786 7.090306,14.71651 20.631965,25.76419 36.585153,29.88646 5.523843,1.42219 11.624804,2.20542 19.457119,2.57642 3.318427,0.14428 37.141659,0.24734 70.985506,0.24734 33.84384,0 67.68768,-0.0412 70.92367,-0.20611 9.06899,-0.42666 14.33519,-1.13363 20.1579,-2.63826 16.05624,-4.14288 29.35057,-15.02567 36.58515,-29.94829 3.63791,-7.50254 5.48262,-14.79896 6.31738,-25.38701 0.18138,-2.30847 0.25765,-39.11417 0.25765,-75.87039 0,-36.762414 -0.0824,-73.500092 -0.26383,-75.808564 C 266.88909,47.30718 265.04438,40.072594 261.28899,32.425782 258.20759,26.166114 254.78611,21.491459 249.81877,16.711686 240.95383,8.2445416 230.11226,3.0917031 217.19306,1.2284367 210.93339,0.32359826 209.6864,0.05565066 177.65636,0 Z"
     id="path3939"
     style="fill:#a6a7aa;stroke-width:2.06114;fill-opacity:1" />
  <path
     fill="#ffffff"
     d="m 133.9809,35.039302 c -26.86896,0 -30.24098,0.117485 -40.793991,0.597729 -10.532402,0.482306 -17.721643,2.149764 -24.012228,4.596332 -6.507004,2.526952 -12.026725,5.907214 -17.525834,11.408384 -5.503232,5.49911 -8.883494,11.01883 -11.41869,17.523774 -2.452751,6.292646 -4.122271,13.483947 -4.596332,24.012227 -0.472,10.553012 -0.595668,13.927092 -0.595668,40.796052 0,26.86896 0.119546,30.23067 0.597729,40.78369 0.484367,10.5324 2.151825,17.72164 4.596332,24.01222 2.529013,6.50701 5.909275,12.02673 11.410445,17.52584 5.497049,5.50323 11.016769,8.89174 17.519651,11.41869 6.294708,2.44657 13.486009,4.11403 24.01635,4.59633 10.553016,0.48025 13.922966,0.59773 40.789866,0.59773 26.87103,0 30.23274,-0.11748 40.78575,-0.59773 10.5324,-0.4823 17.72989,-2.14976 24.0246,-4.59633 6.50494,-2.52695 12.01641,-5.91546 17.51346,-11.41869 5.50323,-5.49911 8.8835,-11.01883 11.41869,-17.52377 2.43214,-6.29265 4.10166,-13.48395 4.59633,-24.01223 0.47407,-10.55301 0.59773,-13.91679 0.59773,-40.78575 0,-26.86896 -0.12366,-30.24098 -0.59773,-40.793991 -0.49467,-10.532402 -2.16419,-17.721642 -4.59633,-24.012227 -2.53519,-6.507005 -5.91546,-12.026725 -11.41869,-17.525835 -5.50323,-5.503231 -11.00646,-8.883493 -17.51965,-11.408384 -6.30707,-2.446568 -13.50044,-4.114026 -24.03284,-4.596332 -10.55301,-0.480244 -13.91266,-0.597729 -40.78987,-0.597729 z m -8.87525,17.828821 c 2.63413,-0.0041 5.57331,0 8.87525,0 26.41551,0 29.54638,0.09481 39.97778,0.568873 9.64612,0.441083 14.8814,2.052891 18.36884,3.407057 4.61694,1.793188 7.90858,3.936769 11.36922,7.399476 3.46271,3.462708 5.60629,6.760524 7.4036,11.377468 1.35417,3.483319 2.96804,8.718602 3.40706,18.364716 0.47406,10.429347 0.57712,13.562267 0.57712,39.965417 0,26.40314 -0.10306,29.53607 -0.57712,39.96541 -0.44108,9.64612 -2.05289,14.8814 -3.40706,18.36472 -1.79319,4.61694 -3.94089,7.90445 -7.4036,11.3651 -3.4627,3.46271 -6.75021,5.60629 -11.36922,7.39948 -3.48332,1.36035 -8.72272,2.96803 -18.36884,3.40911 -10.42934,0.47407 -13.56227,0.57712 -39.97778,0.57712 -26.41757,0 -29.54844,-0.10305 -39.977782,-0.57712 -9.646113,-0.4452 -14.881397,-2.05701 -18.3709,-3.41117 -4.616943,-1.79319 -7.91476,-3.93677 -11.377467,-7.39948 -3.462707,-3.46271 -5.606288,-6.75228 -7.403598,-11.37128 -1.354166,-3.48332 -2.968035,-8.71861 -3.407057,-18.36472 -0.474061,-10.42935 -0.568874,-13.56227 -0.568874,-39.98191 0,-26.41963 0.09481,-29.53607 0.568874,-39.965411 0.441083,-9.646113 2.052891,-14.881397 3.407057,-18.368838 1.793187,-4.616944 3.940891,-7.91476 7.403598,-11.377468 3.462707,-3.462707 6.760524,-5.606288 11.377467,-7.403598 3.487441,-1.360349 8.724787,-2.968035 18.3709,-3.411179 9.126712,-0.412227 12.663612,-0.535895 31.102532,-0.556507 z m 61.68566,16.427249 c -6.55441,0 -11.87214,5.311546 -11.87214,11.868018 0,6.55441 5.31773,11.87214 11.87214,11.87214 6.55441,0 11.87214,-5.31773 11.87214,-11.87214 0,-6.554411 -5.31773,-11.87214 -11.87214,-11.87214 z M 133.9809,83.166813 c -28.05824,0 -50.806987,22.748747 -50.806987,50.806987 0,28.05824 22.748747,50.79668 50.806987,50.79668 28.05824,0 50.79874,-22.73844 50.79874,-50.79668 0,-28.05824 -22.74256,-50.806987 -50.8008,-50.806987 z m 0,17.828817 c 18.21219,0 32.97817,14.76392 32.97817,32.97817 0,18.21219 -14.76598,32.97817 -32.97817,32.97817 -18.21425,0 -32.97817,-14.76598 -32.97817,-32.97817 0,-18.21425 14.76392,-32.97817 32.97817,-32.97817 z"
     id="path3943"
     style="stroke-width:2.06114" />
  <path
     style="fill:#a6a7aa;stroke-width:1.12942;fill-opacity:1"
     d="m 351.5352,8.015022 c -18.30818,7.663537 -38.43494,29.313996 -44.79164,56.490013 -8.05025,34.433077 25.45061,48.993745 28.19837,44.219475 3.23408,-5.60981 -6.00296,-7.50689 -7.90434,-25.372344 -2.45738,-23.074759 8.27004,-48.858207 21.77086,-60.171231 2.50956,-2.101839 2.39018,0.823569 2.39018,6.234717 0,9.676385 -0.53466,96.541958 -0.53466,114.670898 0,24.53069 -1.0132,32.27702 -2.83292,39.93142 -1.84377,7.75694 -4.80793,12.99822 -2.56186,15.01717 2.50946,2.25838 13.22389,-3.11347 19.42664,-11.77055 7.438,-10.38284 10.04165,-22.85205 10.50911,-36.39342 0.5646,-16.32368 0.54054,-42.22595 0.5646,-57.000415 0.0226,-13.550398 0.22825,-53.228929 -0.23752,-77.082207 C 375.41784,10.937841 359.19174,4.7995736 351.5343,8.007902 m 650.1228,114.809028 c -0.5903,12.75291 -3.41314,22.72103 -6.91674,29.75209 -6.7827,13.61174 -20.85699,17.83834 -26.83269,-1.72902 -3.2566,-10.6662 -3.4087,-28.47981 -1.0675,-43.36418 2.3833,-15.162979 9.0381,-26.614473 20.05749,-25.581733 10.869,1.020879 15.95634,15.025986 14.75944,40.922273 z m -183.23132,79.12228 c -0.1475,21.18977 -3.48243,39.76878 -10.63401,45.1649 -10.14318,7.65146 -23.77637,1.91199 -20.95339,-13.5504 2.49782,-13.68276 14.31072,-27.65635 31.61609,-44.72986 0,0 0.0361,3.89355 -0.0282,13.11536 z m -2.77022,-79.24573 c -0.62028,11.61537 -3.63153,23.28405 -6.91678,29.87713 -6.78124,13.61162 -20.9579,17.86691 -26.83279,-1.72903 -4.01688,-13.38877 -3.05484,-30.71729 -1.06741,-41.63583 2.57902,-14.166276 8.83035,-27.308613 20.05753,-27.308613 10.91559,0 16.29816,11.975538 14.75945,40.797253 z m -106.14628,-0.17765 c -0.66545,12.30182 -3.06535,22.5855 -6.91666,30.05478 -6.96794,13.51799 -20.75314,17.80513 -26.83279,-1.72903 -4.38283,-14.08562 -2.89074,-33.29181 -1.06753,-43.66697 2.70564,-15.396208 9.48078,-26.311793 20.05765,-25.277473 10.86442,1.061429 16.14603,15.024396 14.75933,40.619593 z m 486.44372,14.36911 c -2.6559,0 -3.8679,2.73759 -4.8706,7.34572 -3.4779,16.02258 -7.1335,19.64044 -11.8476,19.64044 -5.2665,0 -9.9987,-7.9337 -11.2152,-23.81555 -0.956,-12.48819 -0.8024,-35.47938 0.4202,-58.349513 0.2498,-4.698938 -1.0464,-9.348176 -13.6498,-13.926724 -5.4233,-1.969349 -13.3066,-4.869127 -17.2317,4.605648 -11.0902,26.767961 -15.4294,48.019529 -16.4501,56.652669 -0.053,0.4468 -0.6008,0.53806 -0.6971,-0.50586 -0.6505,-6.91451 -2.1048,-19.47951 -2.2855,-45.878604 -0.035,-5.150697 -1.1262,-9.534985 -6.8113,-13.124384 -3.6888,-2.329078 -14.8904,-6.448386 -18.9238,-1.547749 -3.4946,4.007958 -7.5416,14.794003 -11.7468,27.579561 -3.4176,10.391646 -5.7979,17.421366 -5.7979,17.421366 0,0 0.045,-28.038785 0.086,-38.67439 0.018,-4.012368 -2.7342,-5.349367 -3.5638,-5.591737 -3.7354,-1.08413 -11.0948,-2.895249 -14.2189,-2.895249 -3.8543,0 -4.7983,2.154459 -4.7983,5.293678 0,0.41099 -0.6083,36.915768 -0.6083,62.441608 0,1.10874 0,2.31846 0.011,3.60351 -2.1319,11.73192 -9.0456,27.65783 -16.5646,27.65783 -7.528,0 -11.0797,-6.65814 -11.0797,-37.08891 0,-17.75251 0.533,-25.47173 0.795,-38.311397 0.152,-7.395527 0.4457,-13.074684 0.4291,-14.363463 -0.055,-3.952168 -6.8896,-5.944127 -10.0695,-6.680277 -3.1949,-0.74237 -5.9712,-1.029909 -8.1392,-0.90647 -3.0684,0.17314 -5.2395,2.186209 -5.2395,4.954978 0,1.484509 0.017,4.307478 0.017,4.307478 -3.95204,-6.210547 -10.30864,-10.533155 -14.53794,-11.785784 -11.39129,-3.383059 -23.27799,-0.38547 -32.24378,12.160754 -7.1261,9.968565 -11.4215,21.259004 -13.1123,37.480361 -1.23599,11.859 -0.83259,23.8848 1.3641,34.05508 -2.65439,11.476 -7.58219,16.17765 -12.97819,16.17765 -7.8337,0 -13.51279,-12.78635 -12.85339,-34.89976 0.4351,-14.54486 3.34549,-24.75207 6.52679,-39.518968 1.3566,-6.294917 0.2545,-9.590665 -2.5099,-12.749423 -2.53539,-2.896719 -7.93739,-4.376708 -15.70339,-2.556429 -5.5315,1.297809 -13.44039,2.693429 -20.67629,3.765468 0,0 0.4366,-1.742009 0.7949,-4.813338 1.882,-16.106942 -15.62059,-14.800093 -21.20489,-9.655485 -3.3333,3.071428 -5.6023,6.693927 -6.46349,13.207154 -1.3656,10.335965 7.06429,15.211092 7.06429,15.211092 -2.7659,12.660549 -9.54549,29.199499 -16.54509,41.156969 -3.7489,6.4065 -6.617,11.15378 -10.3194,16.20023 -0.014,-1.87912 -0.024,-3.75801 -0.03,-5.62832 -0.085,-26.61754 0.2695,-47.566407 0.4261,-55.117017 0.1521,-7.395417 0.4487,-12.924024 0.4321,-14.212793 -0.042,-2.890749 -1.72999,-3.982328 -5.24093,-5.364508 -3.10455,-1.222479 -6.77526,-2.068639 -10.58287,-2.363759 -4.80589,-0.374849 -7.70114,2.174129 -7.62592,5.188318 0.0147,0.56911 0.0147,4.063638 0.0147,4.063638 -3.95228,-6.210657 -10.30887,-10.533155 -14.53808,-11.785894 -11.3914,-3.381589 -23.27806,-0.38389 -32.24393,12.160754 -7.12447,9.968565 -11.79032,23.957071 -13.1123,37.356921 -1.23151,12.48875 -1.00416,23.10188 0.6746,32.04212 -1.81124,8.95242 -7.01909,18.31416 -12.90753,18.31416 -7.52802,0 -11.81143,-6.65825 -11.81143,-37.08891 0,-17.75251 0.53297,-25.47173 0.79499,-38.310047 0.15202,-7.395417 0.44567,-13.076044 0.42907,-14.363343 -0.0553,-3.952178 -6.88967,-5.944127 -10.06943,-6.681857 -3.32738,-0.76936 -6.20005,-1.052389 -8.4058,-0.88987 -2.91027,0.21685 -4.95644,2.823089 -4.95644,4.766818 v 4.479148 c -3.95216,-6.210657 -10.30875,-10.533155 -14.53808,-11.785894 -11.39129,-3.381589 -23.21177,-0.33567 -32.24383,12.160754 -5.88991,8.148286 -10.6582,17.181926 -13.1123,37.179261 -0.70916,5.7789 -1.02235,11.19039 -0.98169,16.24847 -2.34873,14.36381 -12.72231,30.91891 -21.20784,30.91891 -4.96548,0 -9.69458,-9.63111 -9.69458,-30.15712 0,-27.34171 1.69232,-66.270435 1.9784,-70.022354 0,0 10.72133,-0.182169 12.79764,-0.206339 5.34779,-0.0587 10.19141,0.0678 17.3143,-0.29659 3.57279,-0.18217 7.01458,-13.003874 3.32737,-14.590703 -1.67119,-0.71819 -13.48263,-1.34751 -18.16497,-1.44689 -3.93715,-0.0892 -14.8979,-0.900379 -14.8979,-0.900379 0,0 0.98316,-25.839118 1.21198,-28.568696 0.19426,-2.274979 -2.74923,-3.446299 -4.43703,-4.157038 -4.10419,-1.7359196 -7.77637,-2.5670492 -12.12902,-3.4643788 -6.01347,-1.2405494 -8.74158,-0.0271 -9.27455,5.0482678 -0.80245,7.702736 -1.21808,30.264065 -1.21808,30.264065 -4.41285,0 -19.48695,-0.862649 -23.90127,-0.862649 -4.10124,0 -8.52777,17.638101 -2.85764,17.854831 6.52373,0.25299 17.89255,0.47131 25.42948,0.69866 0,0 -0.33567,39.570113 -0.33567,51.786563 0,1.29973 0.0113,2.55135 0.0136,3.76581 -4.148,21.62043 -18.75825,33.29927 -18.75825,33.29927 3.13763,-14.30315 -3.2717,-25.04412 -14.81659,-34.13639 -4.25338,-3.35053 -12.65013,-9.69355 -22.04507,-16.644448 0,0 5.4413,-5.362917 10.26673,-16.152006 3.41919,-7.642426 3.56681,-16.388502 -4.82543,-18.317091 -13.86664,-3.188908 -25.30006,6.994917 -28.71033,17.866901 -2.64227,8.422286 -1.23299,14.672027 3.94324,21.164144 0.37791,0.47436 0.78743,0.95911 1.21051,1.4469 -3.13018,6.03322 -7.4302,14.15599 -11.07224,20.4551 -10.10861,17.48901 -17.74493,31.32243 -23.5159,31.32243 -4.61322,0 -4.55144,-14.04451 -4.55144,-27.19409 0,-11.33607 0.83712,-28.37907 1.50563,-46.024634 0.22125,-5.835687 -2.6966,-9.160126 -7.58822,-12.171264 -2.97206,-1.829319 -9.31519,-5.426158 -12.98885,-5.426158 -5.49868,0 -21.36291,0.74824 -36.35264,44.107996 -1.88905,5.46513 -5.6002,15.42333 -5.6002,15.42333 l 0.31939,-52.141899 c 0,-1.22249 -0.6511,-2.404419 -2.14193,-3.212969 -2.52595,-1.371569 -9.2724,-4.176458 -15.27129,-4.176458 -2.85822,0 -4.28456,1.32942 -4.28456,3.979258 l -0.52326,81.576408 c 0,6.19824 0.16162,13.42911 0.77444,16.59169 0.61057,3.16654 1.59971,5.74252 2.82479,7.27514 1.22327,1.52968 2.63832,2.69659 4.97134,3.17818 2.17142,0.44702 14.06158,1.97388 14.6796,-2.56999 0.74044,-5.44549 0.76879,-11.3355 7.01231,-33.30242 9.71988,-34.19965 22.39283,-50.886218 28.35039,-56.812265 1.04166,-1.03578 2.23105,-1.09756 2.17379,0.597689 -0.25435,7.497971 -1.14873,26.233636 -1.75082,42.150846 -1.61383,42.59639 6.13521,50.4917 17.20902,50.4917 8.47199,0 20.41443,-8.41789 33.21648,-29.72647 7.98124,-13.27922 15.73051,-26.29981 21.29819,-35.68426 3.88,3.59177 8.23413,7.45755 12.58532,11.58727 10.11154,9.59698 13.43146,18.71612 11.22876,27.36721 -1.68475,6.61353 -8.02935,13.42922 -19.32137,6.80463 -3.29124,-1.93266 -4.696,-3.42586 -8.0053,-5.60473 -1.77804,-1.17053 -4.49271,-1.52042 -6.1202,-0.29422 -4.22774,3.18767 -6.64571,7.24216 -8.02631,12.26186 -1.34299,4.88438 3.54863,7.46634 8.61948,9.72472 4.36621,1.94372 13.75064,3.70505 19.73542,3.90563 23.31872,0.77987 41.9987,-11.25904 55.00246,-42.31335 2.32773,26.81923 12.23452,41.99565 29.4466,41.99565 11.50728,0 23.04461,-14.87418 28.08994,-29.50668 1.44836,5.96467 3.59233,11.15152 6.3611,15.53772 13.26285,21.0137 38.99199,16.49083 51.91613,-1.35315 3.99588,-5.5137 4.60406,-7.49504 4.60406,-7.49504 1.885,16.84909 15.45347,22.73606 23.22238,22.73606 8.70092,0 17.68475,-4.11334 23.98113,-18.28853 0.73784,1.53838 1.54323,3.00753 2.42259,4.40021 13.26274,21.0137 38.99197,16.49083 51.916,-1.35315 0.60978,-0.83701 1.13823,-1.59632 1.6005,-2.27781 l 0.37936,11.06726 c 0,0 -7.37293,6.76351 -11.89873,10.91265 -19.91907,18.27497 -35.06533,32.14002 -36.1795,48.28604 -1.43029,20.58757 15.26677,28.23903 27.89872,29.24173 13.41488,1.06458 24.90262,-6.34586 31.96385,-16.71672 6.21047,-9.12829 10.27576,-28.77493 9.97756,-48.1791 -0.1189,-7.77026 -0.3146,-17.65018 -0.4682,-28.24048 7.001,-8.13022 14.8888,-18.406 22.15189,-30.43416 7.9149,-13.10812 16.3974,-30.71122 20.74099,-44.410709 0,0 7.3701,0.0633 15.2352,-0.45165 2.5159,-0.164099 3.23859,0.34922 2.7734,2.193663 -0.5617,2.228229 -9.937,38.389786 -1.3807,62.479336 5.85679,16.49083 19.05949,21.79649 26.88698,21.79649 9.1631,0 17.92869,-6.91982 22.62619,-17.19536 0.566,1.14557 1.1577,2.25409 1.8036,3.27745 13.26289,21.0137 38.90178,16.46373 51.91612,-1.35315 2.9373,-4.01982 4.604,-7.49504 4.604,-7.49504 2.793,17.43785 16.3539,22.82483 24.1212,22.82483 8.0912,0 15.7697,-3.31698 21.9999,-18.05812 0.2605,6.49053 0.67,11.79776 1.3174,13.47099 0.3945,1.02326 2.6935,2.30785 4.3662,2.92824 7.4014,2.74471 14.9505,1.44679 17.7435,0.88219 1.9347,-0.39157 3.4432,-1.94373 3.6496,-5.9518 0.5419,-10.52401 0.2092,-28.20592 3.3995,-41.3468 5.3555,-22.05402 10.3511,-30.60877 12.721,-34.843976 1.3262,-2.372909 2.8227,-2.764359 2.877,-0.25299 0.1118,5.081366 0.3643,20.003436 2.439,40.051936 1.5236,14.74498 3.5593,23.46024 5.1235,26.2185 4.4642,7.88784 9.9776,8.26134 14.4674,8.26134 2.8561,0 8.8288,-0.78924 8.2943,-5.80881 -0.2603,-2.44665 0.1958,-17.56739 5.4759,-39.29465 3.4478,-14.18865 9.1962,-27.008997 11.2694,-31.695845 0.7649,-1.728463 1.1202,-0.36593 1.1081,-0.10052 -0.4366,9.771375 -1.4167,41.732285 2.564,59.212265 5.3961,23.68002 21.0061,26.32986 26.4459,26.32986 11.6126,0 21.11,-8.83362 24.3094,-32.07678 0.7709,-5.59355 -0.3704,-9.91266 -3.7896,-9.91266"
     id="path3965" />
</svg>
