<?xml version="1.0" encoding="UTF-8" standalone="no"?>
<svg
   viewBox="0 0 1200 268"
   version="1.1"
   id="svg15"
   sodipodi:docname="twitter-logo.svg"
   width="1200"
   height="268"
   inkscape:version="1.1 (c68e22c387, 2021-05-23)"
   xmlns:inkscape="http://www.inkscape.org/namespaces/inkscape"
   xmlns:sodipodi="http://sodipodi.sourceforge.net/DTD/sodipodi-0.dtd"
   xmlns="http://www.w3.org/2000/svg"
   xmlns:svg="http://www.w3.org/2000/svg">
  <defs
     id="defs19">
    <style
       type="text/css"
       id="style1103"><![CDATA[
    .fil0 {fill:#41ABE1}
   ]]></style>
  </defs>
  <sodipodi:namedview
     id="namedview17"
     pagecolor="#ffffff"
     bordercolor="#666666"
     borderopacity="1.0"
     inkscape:pageshadow="2"
     inkscape:pageopacity="0.0"
     inkscape:pagecheckerboard="0"
     showgrid="false"
     borderlayer="true"
     inkscape:showpageshadow="false"
     inkscape:snap-bbox="true"
     inkscape:bbox-nodes="true"
     inkscape:snap-page="true"
     inkscape:object-nodes="false"
     inkscape:snap-midpoints="true"
     inkscape:snap-center="true"
     inkscape:zoom="0.52134753"
     inkscape:cx="504.46197"
     inkscape:cy="5.754319"
     inkscape:window-width="1920"
     inkscape:window-height="986"
     inkscape:window-x="2869"
     inkscape:window-y="-11"
     inkscape:window-maximized="1"
     inkscape:current-layer="layer3"
     inkscape:bbox-paths="true"
     inkscape:snap-bbox-edge-midpoints="true" />
  <g
     inkscape:groupmode="layer"
     id="layer3"
     inkscape:label="Layer 1"
     style="display:inline">
    <path
       style="fill:#33ccff;fill-opacity:1;stroke-width:1.77666"
       d="M 44.867604,215.52215 C 28.650819,211.15324 13.769122,198.8333 6.1555284,183.47412 0.32070569,171.70336 0.3280347,171.78566 0.31424206,117.68718 -0.37702476,70.890546 -0.11274231,69.380556 3.0068312,64.867317 9.6325569,53.817956 24.243615,51.458345 33.823232,59.890683 c 6.725778,5.920228 7.260422,7.930696 7.260422,27.301764 V 103.9914 h 28.256545 c 17.284032,0 29.902293,0.35296 32.494701,0.90891 14.74613,3.16246 20.34401,20.79674 10.1056,31.8343 -1.20657,1.30075 -3.69186,3.17339 -5.52286,4.16142 -3.21351,1.73399 -4.40597,1.80522 -34.331562,2.05086 l -31.002424,0.25454 v 7.49166 c 0,10.8962 1.130153,14.46115 6.187812,19.51885 5.90603,5.90604 7.482686,6.18421 35.170527,6.20611 21.480487,0.0167 23.412447,0.14024 26.888587,1.71356 13.18732,5.96946 16.47266,21.86367 6.74869,32.64956 -5.68393,6.30462 -6.059,6.36785 -37.54302,6.33191 -24.573984,-0.028 -28.567889,-0.21676 -33.668657,-1.59093 z m 125.829276,0.35756 c -12.80385,-3.10239 -26.01815,-12.83035 -34.09484,-25.09958 -7.44304,-11.3066 -8.89392,-19.26215 -8.93223,-48.97699 -0.033,-25.62584 0.4817,-28.85315 5.41141,-33.92904 4.56306,-4.69849 7.47053,-5.9164 14.18341,-5.94143 5.12622,-0.0203 6.42025,0.30508 9.96535,2.49682 2.52268,1.55972 5.03336,4.06934 6.59298,6.59021 3.12236,5.41136 2.54977,7.68108 2.93496,29.9401 0.40754,25.33415 0.45648,25.93357 2.36767,29.00762 6.45585,10.38366 19.80505,11.91384 28.65999,3.28519 5.11225,-4.98163 5.59267,-7.90853 5.59267,-34.07355 0,-21.5147 0.0968,-22.96295 1.75848,-26.27382 3.32871,-6.63294 8.15505,-10.14383 15.28867,-11.12159 7.63359,-1.04634 15.86588,3.45345 19.80993,10.82804 1.75785,3.28678 1.86338,4.63584 2.26007,28.89603 -0.14174,20.18204 0.80766,26.0883 2.71204,28.9146 6.09049,9.19561 18.89279,11.17365 26.88734,4.15433 5.72989,-5.03095 5.72669,-5.01379 6.19805,-33.13265 0.40461,-24.13626 0.51575,-25.55407 2.26007,-28.83231 7.32147,-13.759732 25.855,-14.627032 33.9127,-1.58699 5.21227,7.226 2.93083,22.51727 2.93083,32.378 0.37824,12.97573 -0.38308,29.61387 -2.65193,34.74182 -6.17259,17.42216 -19.92099,31.26007 -36.46106,36.69838 -7.50284,2.46686 -24.03613,3.05891 -31.48569,1.12742 -7.18196,-1.8621 -13.3971,-4.71464 -19.31177,-8.86356 l -4.96528,-3.48291 -4.9645,3.48236 c -6.0035,4.21122 -12.08041,7.06353 -18.72228,8.78763 -6.19076,1.60705 -21.47827,1.59931 -28.13704,-0.0134 z m 172.85586,0.12125 c -3.79147,-1.651 -8.52652,-6.10921 -10.59592,-9.97651 -1.8089,-3.38038 -1.8236,-3.75367 -1.8236,-46.27032 0,-40.91328 0.0745,-43.01216 1.6331,-46.15578 6.48131,-13.07044 23.21605,-16.012132 33.36352,-5.86462 6.311,6.31092 6.29337,6.15486 6.02295,53.36511 -0.23344,40.74757 -0.27125,41.57951 -2.03753,44.84683 -2.32419,4.29929 -6.54543,8.31674 -10.44972,9.94522 -3.77553,1.57468 -12.61051,1.63507 -16.1128,0.11009 z m 87.33926,-0.4686 c -18.5011,-4.85035 -34.60782,-19.46636 -41.40908,-37.57678 -3.6703,-9.77316 -3.96054,-14.752 -3.68112,-63.14454 0.25773,-44.635457 0.29057,-45.412396 2.0583,-48.68839 8.81537,-16.33674 32.94378,-14.268666 38.17693,3.272126 0.88293,2.959383 1.22454,8.33611 1.22454,19.273719 v 15.169435 l 19.76665,0.30121 c 18.2772,0.27851 20.01749,0.4354 23.09577,2.08125 14.46606,7.73461 14.53181,26.92482 0.11876,34.62648 -3.23162,1.72684 -4.6912,1.85966 -23.28258,2.11871 l -19.83483,0.27646 0.27624,9.71254 c 0.32238,11.33437 1.61339,14.73134 7.23688,19.04241 4.92489,3.77547 8.0256,4.39178 22.16917,4.40622 11.34856,0.01 12.86693,0.19093 16.69187,1.97209 15.98524,7.44358 15.96841,29.98234 -0.028,37.24893 -4.94434,2.24601 -33.90002,2.18358 -42.57958,-0.0918 z m 105.9585,0.04 c -20.95874,-5.7328 -38.16594,-23.33932 -43.5934,-44.60508 -1.33427,-5.22784 -1.48169,-10.5045 -1.48746,-53.24294 0.31651,-44.36237 -1.88475,-42.627702 2.26996,-51.757813 4.78358,-9.072472 14.656,-13.070064 25.10959,-10.167658 4.35775,1.209993 11.69011,8.542167 12.90002,12.89998 0.50367,1.813919 0.90441,10.329814 0.90691,19.271485 v 16.021396 h 16.94828 c 19.41205,0 24.56628,0.71901 29.24332,4.07937 10.12676,7.27579 10.35744,23.57929 0.43523,30.76684 -4.9502,3.58603 -9.63157,4.27097 -29.18986,4.27097 h -17.43697 v 7.53809 c 0,9.92845 1.13962,14.10268 5.06896,18.56657 5.35728,6.08617 7.34452,6.66631 24.54563,7.16574 14.97236,0.43465 15.0708,0.44988 19.14256,2.96364 4.66254,2.87856 8.97565,9.24124 9.81262,14.476 1.21157,7.57636 -2.75759,16.10798 -9.60325,20.64189 l -3.47997,2.3048 -17.95764,0.18039 c -15.32979,0.15407 -18.7891,-0.0471 -23.63953,-1.37371 z m 103.89096,0.37633 c -12.16744,-3.28511 -21.1333,-8.68513 -29.90908,-18.01399 -10.65992,-11.3314 -15.46654,-23.82092 -15.43573,-40.10725 0.0183,-9.94861 1.72242,-17.72569 5.68557,-25.95434 4.18635,-8.69186 8.77729,-14.35977 15.54033,-19.18579 19.69223,-14.052062 54.69435,-14.930162 76.74196,-1.92524 7.89215,4.65526 16.09883,13.46537 20.09773,21.57551 8.08606,16.39937 7.27228,31.25316 -1.97701,36.08225 -3.19998,1.67075 -4.69196,1.7472 -38.49302,1.97218 l -35.16376,0.23402 v 2.18359 c 0,3.40395 5.41962,8.01726 11.38464,9.69094 4.0659,1.14087 8.97249,1.3909 27.37098,1.39468 12.44863,0 23.75582,0.37653 25.42782,0.84095 14.32694,3.97962 17.19893,22.95492 4.59239,30.34278 -4.08374,2.76025 -6.54825,2.06652 -32.64488,2.04822 -21.63639,-0.0406 -30.11924,-0.34171 -33.21794,-1.17837 z m 36.58972,-73.88028 c -1.56719,-5.25129 -6.05904,-8.35989 -14.27352,-9.87843 -8.73798,-1.61528 -20.95478,1.99895 -23.3116,6.89648 -1.03781,2.1566 -2.02915,4.61168 -2.02915,4.61168 0,0 7.27121,0.24292 20.16835,0.24292 h 20.00489 z m 62.80679,73.5113 c -4.28897,-2.33059 -8.857,-7.74301 -9.94492,-11.78343 -0.6361,-2.36221 -0.84027,-11.60245 -0.63098,-28.55279 0.30502,-24.6891 0.34338,-25.16163 2.58706,-31.89709 5.91011,-17.74147 21.71257,-32.45674 40.09268,-37.33433 6.75648,-1.79308 37.94847,-2.65226 44.75227,-1.23272 9.44855,1.97122 15.58783,9.26248 15.58783,18.51238 0,7.88892 -3.58438,13.99368 -10.29993,17.54243 -3.16152,1.67064 -4.97711,1.8485 -22.9912,2.25231 -18.67851,0.41874 -19.69987,0.52625 -22.69739,2.38995 -3.95671,2.45999 -6.84152,6.25317 -8.01063,10.53269 -0.5485,2.00819 -0.91111,11.93295 -0.91389,25.01307 0,21.67863 0,21.68494 -2.16836,26.02587 -1.46089,2.9316 -3.42081,5.2122 -6.03404,7.0215 -3.39848,2.35294 -4.63149,2.70691 -10.11254,2.90299 -4.9052,0.17537 -6.87901,-0.12291 -9.21596,-1.39283 z M 342.53108,89.351578 c -13.21225,-6.583942 -15.6137,-23.973057 -4.64112,-33.607075 4.27443,-3.752978 7.71323,-5.018845 13.63413,-5.018845 8.27923,0 14.71051,3.868254 18.42902,11.084617 8.89146,17.255186 -9.99615,36.224973 -27.42203,27.541303 z"
       id="path4223"
       inkscape:connector-curvature="0"
       sodipodi:nodetypes="csccsscssssscssccsscccsssccccssssssccssscccssscsscccsssssscccssssscsssscsscsscccscccsccsssscsssssscscccsssssssscscccccccssscscssssssssssssscssssssss" />
    <path
       class="fil0"
       d="m 1200,31.746549 c -12.1572,5.364923 -25.2004,9.007169 -38.8833,10.631406 13.9783,-8.36731 24.7081,-21.656564 29.7285,-37.4560102 C 1177.7528,12.69862 1163.2823,18.309639 1147.8766,21.361241 1135.5225,8.219643 1117.9511,0 1098.4602,0 c -37.3575,0 -67.6767,30.319184 -67.6767,67.676763 0,5.315708 0.5907,10.48375 1.7719,15.405694 -56.25788,-2.805504 -106.1172,-29.777775 -139.488,-70.728375 -5.8079,9.991556 -9.15483,21.607348 -9.15483,34.010656 0,23.477681 11.96034,44.199082 30.12233,56.307072 -11.07439,-0.34454 -21.50891,-3.396143 -30.66373,-8.465754 0,0.295322 0,0.541419 0,0.836731 0,32.780173 23.33002,60.146193 54.28906,66.347853 -5.66023,1.52579 -11.665,2.36252 -17.81744,2.36252 -4.38053,0 -8.61341,-0.44297 -12.74784,-1.23048 8.61341,26.87383 33.6169,46.46318 63.19779,47.0046 -23.18237,18.16198 -52.32028,28.99026 -84.06684,28.99026 -5.46337,0 -10.82829,-0.34454 -16.14399,-0.93518 C 900.00734,256.77796 935.59302,268 973.83655,268 1098.3126,268 1166.3831,164.88522 1166.3831,75.453438 c 0,-2.95316 -0.05,-5.857116 -0.1969,-8.761061 13.2401,-9.548578 24.7082,-21.459692 33.7646,-35.044258 z"
       id="path1108"
       style="clip-rule:evenodd;display:inline;fill:#33ccff;fill-opacity:1;fill-rule:evenodd;stroke-width:0.0492194;image-rendering:optimizeQuality;shape-rendering:geometricPrecision;text-rendering:geometricPrecision" />
  </g>
</svg>
