<?xml version="1.0" encoding="UTF-8" standalone="no"?>
<svg
   width="492"
   height="110"
   version="1.1"
   id="svg4"
   sodipodi:docname="instagram_grey.svg"
   inkscape:version="1.1 (c68e22c387, 2021-05-23)"
   xmlns:inkscape="http://www.inkscape.org/namespaces/inkscape"
   xmlns:sodipodi="http://sodipodi.sourceforge.net/DTD/sodipodi-0.dtd"
   xmlns="http://www.w3.org/2000/svg"
   xmlns:svg="http://www.w3.org/2000/svg">
  <defs
     id="defs8">
    <radialGradient
       id="0"
       cx="217.76"
       cy="3290.99"
       r="4271.92"
       gradientUnits="userSpaceOnUse"
       gradientTransform="scale(0.03269236)">
      <stop
         offset=".09"
         stop-color="#fa8f21"
         id="stop825" />
      <stop
         offset=".78"
         stop-color="#d82d7e"
         id="stop827" />
    </radialGradient>
    <radialGradient
       id="1"
       cx="2330.61"
       cy="3182.95"
       r="3759.33"
       gradientUnits="userSpaceOnUse"
       gradientTransform="scale(0.03269236)">
      <stop
         offset="0.50579786"
         stop-color="#8c3aaa"
         stop-opacity="0"
         id="stop830"
         style="stop-color:#515769;stop-opacity:1" />
      <stop
         offset="1"
         stop-color="#8c3aaa"
         id="stop832"
         style="stop-color:#a6a7aa;stop-opacity:1" />
    </radialGradient>
  </defs>
  <sodipodi:namedview
     id="namedview6"
     pagecolor="#ffffff"
     bordercolor="#666666"
     borderopacity="1.0"
     inkscape:pageshadow="2"
     inkscape:pageopacity="0.0"
     inkscape:pagecheckerboard="0"
     showgrid="false"
     borderlayer="true"
     inkscape:showpageshadow="false"
     inkscape:snap-page="true"
     inkscape:snap-bbox="true"
     inkscape:bbox-nodes="true"
     inkscape:snap-center="true"
     inkscape:zoom="1.2214428"
     inkscape:cx="216.13784"
     inkscape:cy="45.84742"
     inkscape:window-width="1920"
     inkscape:window-height="986"
     inkscape:window-x="2869"
     inkscape:window-y="-11"
     inkscape:window-maximized="1"
     inkscape:current-layer="svg4" />
  <path
     style="fill:#a6a7aa;stroke-width:0.44097;fill-opacity:1"
     d="m 144.34998,5.8103353 c -7.14826,2.9921592 -15.00656,11.4453817 -17.48849,22.0560047 -3.14314,13.444076 9.93696,19.129153 11.0098,17.265083 1.26272,-2.190298 -2.34379,-2.930996 -3.08618,-9.906395 -0.95946,-9.009327 3.22896,-19.076235 8.50023,-23.493301 0.97983,-0.820645 0.93323,0.321555 0.93323,2.434288 0,3.778056 -0.20876,37.69391 -0.20876,44.772188 0,9.577783 -0.39559,12.602265 -1.10608,15.590853 -0.71988,3.028627 -1.87722,5.075038 -1.00025,5.863316 0.97979,0.881763 5.16314,-1.215622 7.58495,-4.595702 2.90409,-4.053885 3.92067,-8.922371 4.10317,-14.209471 0.22045,-6.373431 0.21106,-16.486732 0.22045,-22.255284 0.009,-5.290628 0.0891,-20.782745 -0.0927,-30.0960354 -0.0446,-2.2843573 -6.37991,-4.6809865 -9.36969,-3.4283225 M 398.18414,50.633675 c -0.23045,4.979259 -1.33266,8.871218 -2.70059,11.616435 -2.64824,5.314571 -8.14344,6.964815 -10.47661,-0.675082 -1.2715,-4.164523 -1.3309,-11.119681 -0.41677,-16.931141 0.93054,-5.920246 3.52882,-10.391374 7.83128,-9.988151 4.24368,0.398592 6.23003,5.866755 5.76269,15.977719 z m -71.54106,30.892564 c -0.0575,8.273351 -1.35969,15.527354 -4.15196,17.634213 -3.9603,2.987438 -9.28325,0.74653 -8.18105,-5.290623 0.97525,-5.342306 5.5875,-10.798166 12.34422,-17.464356 0,0 0.0141,1.5202 -0.0115,5.120766 z m -1.08162,-30.940761 c -0.24218,4.535113 -1.41789,9.091041 -2.70058,11.665248 -2.64767,5.31453 -8.18282,6.975972 -10.47661,-0.675081 -1.56836,-5.227526 -1.19274,-11.993286 -0.41676,-16.256324 1.00696,-5.531089 3.44772,-10.662395 7.83128,-10.662395 4.26188,0 6.36346,4.67574 5.76267,15.928903 z m -41.44382,-0.06936 c -0.25982,4.803134 -1.19684,8.8183 -2.70055,11.734612 -2.72056,5.277973 -8.10287,6.951852 -10.47662,-0.675081 -1.71122,-5.499604 -1.12865,-12.99848 -0.41679,-17.049365 1.05638,-6.011306 3.70167,-10.273194 7.83131,-9.869354 4.24191,0.414423 6.30407,5.866139 5.76265,15.859539 z m 189.92753,5.610286 c -1.037,0 -1.5102,1.068867 -1.90168,2.86807 -1.35793,6.255868 -2.78522,7.668427 -4.62579,7.668427 -2.05629,0 -3.9039,-3.097639 -4.37887,-9.298561 -0.37328,-4.875896 -0.31331,-13.852595 0.16404,-22.782022 0.0975,-1.834657 -0.40857,-3.649911 -5.32944,-5.43756 -2.11745,-0.768919 -5.19542,-1.901108 -6.72793,1.798234 -4.33006,10.451301 -6.02427,18.748776 -6.42282,22.119506 -0.0207,0.174449 -0.23454,0.21008 -0.27216,-0.19751 -0.25396,-2.699707 -0.8218,-7.605592 -0.89235,-17.912872 -0.0137,-2.011045 -0.43969,-3.722847 -2.6594,-5.124295 -1.44026,-0.909368 -5.81384,-2.517716 -7.38867,-0.604305 -1.36442,1.56487 -2.94454,5.776181 -4.5864,10.768183 -1.33438,4.057323 -2.26377,6.80201 -2.26377,6.80201 0,0 0.0177,-10.947482 0.0335,-15.100054 0.007,-1.566591 -1.06756,-2.088612 -1.39144,-2.183244 -1.45847,-0.423288 -4.33188,-1.130427 -5.55165,-1.130427 -1.5049,0 -1.87346,0.841195 -1.87346,2.066871 0,0.16047 -0.23751,14.41342 -0.23751,24.379746 0,0.432899 0,0.905223 0.005,1.406959 -0.83238,4.580621 -3.53178,10.798743 -6.4675,10.798743 -2.93923,0 -4.32596,-2.599608 -4.32596,-14.481021 0,-6.931305 0.2081,-9.945204 0.31041,-14.958329 0.0594,-2.887517 0.174,-5.104891 0.16751,-5.608082 -0.0216,-1.543086 -2.68995,-2.320825 -3.93151,-2.60825 -1.24741,-0.28985 -2.33141,-0.402121 -3.17789,-0.353922 -1.19803,0.0676 -2.0457,0.853585 -2.0457,1.934623 0,0.579612 0.006,1.681817 0.006,1.681817 -1.54309,-2.424852 -4.02497,-4.112577 -5.67627,-4.601654 -4.44763,-1.320881 -9.0887,-0.150504 -12.5893,4.748056 -2.7823,3.892134 -4.45939,8.300382 -5.11956,14.63386 -0.4826,4.630234 -0.3251,9.325596 0.53261,13.296488 -1.03638,4.480699 -2.96042,6.316414 -5.06724,6.316414 -3.05857,0 -5.27595,-4.992313 -5.01847,-13.626288 0.16987,-5.678905 1.3062,-9.664218 2.54833,-15.429814 0.52965,-2.457791 0.0993,-3.744587 -0.97997,-4.977892 -0.98993,-1.131001 -3.09909,-1.708848 -6.13125,-0.998136 -2.15974,0.506719 -5.24767,1.051626 -8.07288,1.470195 0,0 0.17048,-0.680153 0.3104,-1.879327 0.73478,-6.288805 -6.09893,-5.778558 -8.27927,-3.769896 -1.30148,1.199215 -2.18739,2.613583 -2.52363,5.156615 -0.53317,4.035582 2.75819,5.93903 2.75819,5.93903 -1.0799,4.943188 -3.72696,11.40067 -6.45987,16.069354 -1.4637,2.501359 -2.58355,4.354888 -4.0291,6.325233 -0.006,-0.733688 -0.009,-1.467285 -0.0119,-2.197532 -0.0331,-10.392567 0.1052,-18.571858 0.16633,-21.519921 0.0594,-2.887472 0.17521,-5.046066 0.16872,-5.549257 -0.0163,-1.128664 -0.67544,-1.554862 -2.04628,-2.094521 -1.21214,-0.477306 -2.64533,-0.80768 -4.13198,-0.922906 -1.87641,-0.146358 -3.00684,0.848868 -2.97747,2.025729 0.006,0.222205 0.006,1.58661 0.006,1.58661 -1.54313,-2.424894 -4.025,-4.112576 -5.67625,-4.601698 -4.44768,-1.320307 -9.08871,-0.149886 -12.58935,4.748057 -2.78169,3.892135 -4.60342,9.353816 -5.11958,14.585662 -0.48084,4.876119 -0.39207,9.019916 0.2634,12.510547 -0.70719,3.495394 -2.74055,7.150597 -5.03964,7.150597 -2.93924,0 -4.61167,-2.599652 -4.61167,-14.481021 0,-6.931303 0.2081,-9.945202 0.31041,-14.957799 0.0594,-2.887472 0.174,-5.105421 0.16753,-5.608038 -0.0216,-1.543087 -2.69001,-2.320826 -3.93152,-2.608868 -1.29915,-0.30039 -2.42075,-0.410896 -3.28197,-0.347441 -1.13629,0.08467 -1.93519,1.10225 -1.93519,1.861158 v 1.748844 c -1.54309,-2.424894 -4.02495,-4.112576 -5.67627,-4.601698 -4.44762,-1.320307 -9.0628,-0.131057 -12.5893,4.748057 -2.29965,3.181423 -4.16139,6.708523 -5.11956,14.516297 -0.27689,2.256316 -0.39917,4.36918 -0.3833,6.344064 -0.91704,5.608215 -4.96731,12.072 -8.28041,12.072 -1.93872,0 -3.78515,-3.760373 -3.78515,-11.774565 0,-10.675318 0.66074,-25.874676 0.77244,-27.339578 0,0 4.18605,-0.07113 4.99673,-0.08057 2.088,-0.02294 3.97914,0.02646 6.76021,-0.115799 1.39495,-0.07113 2.73877,-5.077242 1.29913,-5.696805 -0.6525,-0.280412 -5.26416,-0.526122 -7.09235,-0.564928 -1.53721,-0.03483 -5.81675,-0.35154 -5.81675,-0.35154 0,0 0.38388,-10.0886493 0.47322,-11.1543862 0.0758,-0.8882458 -1.07342,-1.3455757 -1.7324,-1.6230785 -1.60244,-0.6777712 -3.03621,-1.0022817 -4.73567,-1.3526321 -2.3479,-0.4843619 -3.41306,-0.010566 -3.62116,1.9710492 -0.3133,3.0074606 -0.47557,11.8163246 -0.47557,11.8163246 -1.72297,0 -7.60851,-0.336812 -9.33204,-0.336812 -1.6013,0 -3.3296,6.886631 -1.11574,6.971254 2.54713,0.09878 6.98597,0.184015 9.92871,0.272782 0,0 -0.13106,15.449786 -0.13106,20.219584 0,0.507468 0.005,0.996151 0.006,1.470326 -1.61954,8.441495 -7.32398,13.001391 -7.32398,13.001391 1.22506,-5.584535 -1.2774,-9.778249 -5.785,-13.328239 -1.66069,-1.308181 -4.93913,-3.784758 -8.60729,-6.498665 0,0 2.1245,-2.093902 4.00854,-6.306403 1.33501,-2.983913 1.39264,-6.398742 -1.88404,-7.151741 -5.4141,-1.245078 -9.87816,2.731103 -11.20968,6.975971 -1.03165,3.288402 -0.48141,5.728555 1.5396,8.26334 0.14756,0.185206 0.30745,0.374472 0.47264,0.564926 -1.22215,2.35562 -2.90105,5.527077 -4.32305,7.986502 -3.94682,6.828424 -6.92835,12.229559 -9.18158,12.229559 -1.80119,0 -1.77706,-5.483552 -1.77706,-10.61768 0,-4.426065 0.32684,-11.080349 0.58786,-17.96989 0.0864,-2.278494 -1.05286,-3.57649 -2.96275,-4.75216 -1.16041,-0.71424 -3.63704,-2.118597 -5.07138,-2.118597 -2.1469,0 -8.34094,0.292143 -14.19354,17.221561 -0.73758,2.13381 -2.18656,6.021892 -2.18656,6.021892 l 0.12353,-20.35831 c 0,-0.477307 -0.25422,-0.938783 -0.8363,-1.254473 -0.98623,-0.535513 -3.62033,-1.630663 -5.96254,-1.630663 -1.11595,0 -1.67286,0.519066 -1.67286,1.55367 l -0.2043,31.85075 c 0,2.420045 0.0632,5.243268 0.30238,6.478073 0.23838,1.236347 0.62458,2.242112 1.1029,2.840509 0.47761,0.597249 1.03011,1.052861 1.94102,1.24089 0.84782,0.174536 5.49021,0.770684 5.73151,-1.003428 0.28909,-2.126137 0.30017,-4.42584 2.73789,-13.002623 3.79504,-13.352932 8.74308,-19.868047 11.06915,-22.181817 0.40671,-0.404414 0.8711,-0.428535 0.84874,0.233361 -0.0993,2.927514 -0.44852,10.24268 -0.6836,16.457407 -0.63009,16.631367 2.39544,19.714014 6.71911,19.714014 3.30781,0 7.97062,-3.286684 12.96906,-11.606424 3.11621,-5.184751 6.14184,-10.26852 8.31569,-13.932588 1.51491,1.402374 3.21493,2.911729 4.91381,4.524136 3.94797,3.747057 5.24421,7.307538 4.38417,10.685281 -0.6578,2.582189 -3.13499,5.243312 -7.54385,2.656801 -1.28503,-0.754588 -1.8335,-1.337595 -3.12559,-2.188314 -0.69422,-0.457022 -1.75415,-0.593634 -2.38957,-0.114873 -1.65069,1.244594 -2.59476,2.827633 -3.13381,4.787525 -0.52435,1.907064 1.38553,2.915167 3.3654,3.79693 1.70474,0.75891 5.36881,1.446603 7.70551,1.52492 9.10459,0.304488 16.398,-4.395989 21.4752,-16.520861 0.90885,10.471323 4.77686,16.396814 11.49716,16.396814 4.49291,0 8.99755,-5.807487 10.96745,-11.520609 0.56551,2.328851 1.40259,4.354006 2.48363,6.066558 5.17836,8.204604 15.22406,6.438695 20.27017,-0.528326 1.56016,-2.152773 1.79763,-2.926366 1.79763,-2.926366 0.73597,6.578569 6.03365,8.877083 9.06696,8.877083 3.39719,0 6.90484,-1.606014 9.3632,-7.140587 0.28808,0.600646 0.60255,1.17426 0.94588,1.71802 5.17831,8.204603 15.22406,6.438694 20.27011,-0.528327 0.2381,-0.326803 0.44442,-0.623266 0.62492,-0.889348 l 0.14811,4.321111 c 0,0 -2.87869,2.64075 -4.64575,4.260743 -7.77722,7.135294 -13.69094,12.548776 -14.12596,18.852833 -0.55844,8.038226 5.96078,11.025656 10.8928,11.417146 5.23773,0.41567 9.723,-2.47767 12.47999,-6.526875 2.42485,-3.564052 4.01208,-11.234897 3.89567,-18.811074 -0.0464,-3.033831 -0.12286,-6.89135 -0.18283,-11.026238 2.73349,-3.174369 5.81323,-7.186448 8.64901,-11.882737 3.09033,-5.117944 6.40223,-11.990907 8.09816,-17.339743 0,0 2.87754,0.02469 5.94842,-0.176344 0.9823,-0.06407 1.26448,0.136347 1.08284,0.856497 -0.21929,0.869989 -3.87978,14.988931 -0.53908,24.394473 2.28674,6.438693 7.44159,8.510239 10.49778,8.510239 3.57764,0 7.00009,-2.70178 8.83416,-6.713771 0.22102,0.447276 0.45205,0.880088 0.70425,1.279651 5.17834,8.204604 15.1888,6.42811 20.27016,-0.528326 1.14687,-1.569501 1.7976,-2.926367 1.7976,-2.926367 1.09048,6.808448 6.38522,8.911743 9.4179,8.911743 3.15911,0 6.15712,-1.295084 8.58965,-7.050628 0.10164,2.534168 0.26158,4.60633 0.51435,5.259628 0.15404,0.399518 1.05167,0.901079 1.70475,1.143304 2.88985,1.071645 5.83735,0.564882 6.92777,0.344441 0.75538,-0.152884 1.34443,-0.75891 1.42495,-2.323824 0.21162,-4.109005 0.0817,-11.012745 1.32736,-16.143478 2.091,-8.610784 4.04146,-11.950913 4.96674,-13.604506 0.51788,-0.926479 1.10221,-1.079319 1.12338,-0.09878 0.0436,1.98397 0.14225,7.810155 0.95232,15.637908 0.59486,5.757042 1.38966,9.159833 2.00041,10.23677 1.74298,3.079735 3.89567,3.225565 5.64865,3.225565 1.11513,0 3.44712,-0.308151 3.23845,-2.267999 -0.10164,-0.955274 0.0765,-6.859025 2.13799,-15.342233 1.34615,-5.539823 3.59056,-10.545409 4.40005,-12.375347 0.29862,-0.67486 0.43736,-0.142874 0.43264,-0.03926 -0.17048,3.815142 -0.55316,16.293983 1.00109,23.118879 2.10686,9.245646 8.20164,10.280251 10.32554,10.280251 4.53405,0 8.24222,-3.449004 9.49139,-12.524083 0.30097,-2.183949 -0.14464,-3.870308 -1.47963,-3.870308"
     id="path2" />
  <path
     d="M 27.893122,109.61094 C 21.35138,109.31344 17.797721,108.22479 15.434063,107.30286 12.302135,106.08344 10.069247,104.6319 7.7186662,102.28459 5.3680855,99.937275 3.9132755,97.704387 2.7003889,94.572459 1.7784644,92.208801 0.6898088,88.655142 0.39230832,82.113401 0.06538472,75.042043 0,72.920309 0,55.004896 0,37.089482 0.07192319,34.971017 0.38903908,27.893122 0.68653956,21.35138 1.7817336,17.804259 2.6971197,15.434063 3.9165447,12.302135 5.3713547,10.069247 7.715397,7.715397 10.062708,5.3680855 12.295597,3.9100063 15.430794,2.6971197 17.794452,1.7751951 21.348111,0.68653956 27.889852,0.38903908 34.964479,0.06538472 37.089482,0 54.998357,0 72.913771,0 75.032235,0.07192319 82.110131,0.38903908 88.651873,0.68653956 92.198994,1.7817336 94.56919,2.6971197 c 3.131928,1.2128866 5.364816,2.6709658 7.7154,5.0182773 2.35058,2.347311 3.79885,4.583469 5.01827,7.715397 0.92193,2.363658 2.01058,5.917317 2.30808,12.459058 0.32366,7.077896 0.38904,9.196361 0.38904,27.111774 0,17.908875 -0.0654,20.033879 -0.38904,27.111775 -0.2975,6.541741 -1.39269,10.0954 -2.30808,12.459058 -1.21942,3.131928 -2.67096,5.364816 -5.01827,7.712131 -2.347315,2.34731 -4.583472,3.79885 -7.7154,5.01827 -2.363658,0.92193 -5.917317,2.01058 -12.459059,2.30808 -7.071357,0.32366 -9.19636,0.38904 -27.111774,0.38904 -17.908875,0 -20.033878,-0.0621 -27.105235,-0.38904"
     fill="url(#0)"
     id="path837"
     style="fill:#a6a7aa;stroke-width:0.0326924;fill-opacity:1" />
  <path
     d="m 41.494778,55.234396 c 0,-7.522839 6.096798,-13.622906 13.619637,-13.622906 7.522839,0 13.622907,6.100067 13.622907,13.622906 0,7.522839 -6.100068,13.622906 -13.622907,13.622906 -7.522839,0 -13.619637,-6.100067 -13.619637,-13.622906 m -7.364281,0 c 0,11.589442 9.394476,20.983918 20.983918,20.983918 11.589442,0 20.983918,-9.394476 20.983918,-20.983918 0,-11.589442 -9.394476,-20.983918 -20.983918,-20.983918 -11.589442,0 -20.983591,9.393823 -20.983591,20.983918 M 72.025519,33.418457 a 4.903854,4.903854 0 1 0 4.905816,-4.901892 h -0.002 a 4.9061425,4.9061425 0 0 0 -4.903854,4.901892 M 38.604773,88.498219 c -3.984218,-0.181443 -6.14976,-0.845098 -7.588877,-1.405772 -1.907926,-0.74277 -3.269236,-1.627426 -4.700508,-3.056736 -1.431271,-1.42931 -2.317234,-2.789312 -3.056735,-4.697238 -0.561001,-1.438464 -1.224656,-3.60466 -1.405772,-7.588877 -0.198116,-4.307546 -0.237673,-5.601509 -0.237673,-16.514546 0,-10.913037 0.04283,-12.203404 0.237673,-16.514546 0.181443,-3.984218 0.850001,-6.146163 1.405772,-7.588877 0.74277,-1.907926 1.627425,-3.269236 3.056735,-4.700508 1.42931,-1.431271 2.789312,-2.317234 4.700508,-3.056735 1.438464,-0.561001 3.604659,-1.224656 7.588877,-1.405772 4.307546,-0.198116 5.601509,-0.237673 16.509642,-0.237673 10.908133,0 12.203404,0.04217 16.514546,0.238327 3.984218,0.181443 6.146163,0.850001 7.588877,1.405771 1.907926,0.739502 3.269236,1.627426 4.700508,3.056736 1.431271,1.42931 2.313965,2.792581 3.056735,4.700508 0.561001,1.438463 1.224656,3.604659 1.405772,7.588877 0.198116,4.311142 0.237673,5.601509 0.237673,16.514546 0,10.913036 -0.03956,12.203404 -0.237673,16.514545 -0.181443,3.984218 -0.848367,6.14976 -1.405772,7.588878 -0.74277,1.907926 -1.627425,3.269236 -3.056735,4.697238 -1.42931,1.428003 -2.792582,2.313965 -4.700508,3.056736 -1.438464,0.561001 -3.604659,1.224656 -7.588877,1.405771 -4.307546,0.198116 -5.601509,0.237674 -16.514546,0.237674 -10.913037,0 -12.203404,-0.03956 -16.509642,-0.237674 M 38.266407,14.616427 c -4.350372,0.198116 -7.323088,0.887925 -9.919189,1.898119 -2.686985,1.043213 -4.964661,2.442773 -7.239069,4.713584 -2.274407,2.270811 -3.670371,4.548815 -4.713584,7.239069 -1.010194,2.597735 -1.700003,5.568817 -1.898119,9.919189 -0.201385,4.357238 -0.247481,5.75026 -0.247481,16.848008 0,11.097749 0.0461,12.49077 0.247481,16.848008 0.198116,4.350699 0.887925,7.321454 1.898119,9.919189 1.043213,2.686985 2.439504,4.969238 4.713584,7.239069 2.274081,2.269831 4.548815,3.667429 7.239069,4.713584 2.601005,1.010194 5.568817,1.700003 9.919189,1.898119 4.359527,0.198116 5.75026,0.247481 16.848008,0.247481 11.097749,0 12.49077,-0.0461 16.848008,-0.247481 4.350699,-0.198116 7.321454,-0.887925 9.919189,-1.898119 2.686985,-1.046155 4.964662,-2.442773 7.239069,-4.713584 2.274408,-2.270811 3.667429,-4.552084 4.713585,-7.239069 1.010193,-2.597735 1.703271,-5.568817 1.898118,-9.919189 0.198116,-4.360507 0.244212,-5.750259 0.244212,-16.848008 0,-11.097748 -0.0461,-12.49077 -0.244212,-16.848008 C 95.534268,34.035689 94.844459,31.0633 93.834266,28.467199 92.78811,25.780214 91.391492,23.502538 89.120681,21.22813 86.84987,18.953723 84.568597,17.557759 81.884881,16.514546 79.283877,15.504352 76.312795,14.811274 71.965692,14.616427 67.6078,14.417331 66.215433,14.368946 55.119319,14.368946 c -11.096114,0 -12.491751,0.0461 -16.851277,0.247481"
     fill="#ffffff"
     id="path841"
     style="stroke-width:0.0326924" />
</svg>
