<?xml version="1.0" encoding="UTF-8" standalone="no"?>
<!-- Generator: Adobe Illustrator 14.0.0, SVG Export Plug-In . SVG Version: 6.00 Build 43363)  -->

<svg
   version="1.1"
   id="Calque_1"
   x="0px"
   y="0px"
   width="492"
   height="110"
   viewBox="0 0 491.99999 110"
   enable-background="new 0 0 425.2 99.21"
   xml:space="preserve"
   sodipodi:docname="twitter_grey.svg"
   inkscape:version="1.1 (c68e22c387, 2021-05-23)"
   xmlns:inkscape="http://www.inkscape.org/namespaces/inkscape"
   xmlns:sodipodi="http://sodipodi.sourceforge.net/DTD/sodipodi-0.dtd"
   xmlns="http://www.w3.org/2000/svg"
   xmlns:svg="http://www.w3.org/2000/svg"><defs
   id="defs84">
	
	
</defs><sodipodi:namedview
   id="namedview82"
   pagecolor="#ffffff"
   bordercolor="#666666"
   borderopacity="1.0"
   inkscape:pageshadow="2"
   inkscape:pageopacity="0.0"
   inkscape:pagecheckerboard="0"
   showgrid="false"
   borderlayer="true"
   inkscape:showpageshadow="false"
   inkscape:snap-page="true"
   inkscape:snap-nodes="false"
   inkscape:snap-bbox="true"
   inkscape:bbox-paths="true"
   inkscape:bbox-nodes="true"
   inkscape:zoom="1.7062558"
   inkscape:cx="212.74653"
   inkscape:cy="25.787458"
   inkscape:window-width="1920"
   inkscape:window-height="986"
   inkscape:window-x="2869"
   inkscape:window-y="-11"
   inkscape:window-maximized="1"
   inkscape:current-layer="Calque_1" />
<g
   id="g75"
   transform="matrix(1.2543085,0,0,1.4764932,-20.663479,-18.244117)"
   style="fill:#a6a7aa;fill-opacity:1">
		
			<linearGradient
   id="bird_2_"
   gradientUnits="userSpaceOnUse"
   x1="3726.1963"
   y1="1102.499"
   x2="3726.1963"
   y2="1085.1249"
   gradientTransform="matrix(4.262,0,0,-4.262,-15526.008,4711.7021)">
			<stop
   offset="0.3006"
   style="stop-color:#57C2EB"
   id="stop2" />
			<stop
   offset="1"
   style="stop-color:#28B3E3"
   id="stop4" />
		</linearGradient>
		<path
   id="bird_1_"
   fill="url(#bird_2_)"
   d="m 301.279,66.168 c 6.994,6.469 24.949,12.588 39.561,-1.734 -2.627,0.41 -4.82,-0.088 -6.486,-1.736 -1.582,-1.566 -1.668,-3.186 -0.822,-4.66 0.688,-1.197 2.137,-2.043 3.562,-2.924 -2.586,0.48 -4.791,0.23 -6.762,-0.777 -2.645,-1.352 -5.217,-2.775 -5.938,-5.709 1.617,-1.701 3.416,-3.223 7.309,-2.65 -3.662,-1.223 -6.943,-2.816 -9.318,-5.207 -2.314,-2.328 -2.555,-3.839 -2.924,-5.665 2.02,-0.749 4.133,-1.138 6.395,-0.914 -5.119,-2.617 -7.293,-6.217 -8.496,-10.141 -0.363,-1.185 -0.428,-2.314 -0.275,-3.472 20.74,7.829 30.453,13.454 35.814,18.73 2.412,-6.419 8.037,-20.958 16.445,-25.948 0.041,0.792 -0.275,1.646 -0.914,2.559 2.49,-1.387 4.434,-3.606 7.857,-3.563 -0.395,1.62 -1.527,2.917 -3.746,3.745 2.238,-0.855 4.506,-1.582 6.854,-2.009 2.178,-0.394 2.146,1.323 0.914,2.192 -2.502,1.764 -5.158,1.984 -7.768,2.832 7.998,0.2 14.535,3.985 19.643,12.243 1.697,2.744 2.838,5.488 3.107,8.496 3.412,0.959 6.807,1.154 10.232,0.549 0.939,-0.166 1.814,-0.342 2.65,-0.73 -1.334,2 -2.871,3.643 -5.025,4.385 -2.059,0.711 -4.121,1.404 -6.395,1.463 3.703,1.402 7.781,1.479 11.969,1.188 -5.121,4.93 -9.041,4.811 -12.975,4.75 -1.725,7.283 -5.25,14.547 -12.699,21.197 -9.77,8.723 -20.287,12.885 -31.154,13.797 -10.189,0.854 -20.037,0.736 -30.791,-4.295 -7.97,-3.732 -14.652,-8.867 -19.824,-15.992 z"
   style="fill:#a6a7aa;fill-opacity:1" />
		<g
   id="g73"
   style="fill:#a6a7aa;fill-opacity:1">
			<g
   id="g71"
   style="fill:#a6a7aa;fill-opacity:1">
				<linearGradient
   id="SVGID_1_"
   gradientUnits="userSpaceOnUse"
   x1="261.0098"
   y1="18.169399"
   x2="261.0098"
   y2="85.352402">
					<stop
   offset="0.2699"
   style="stop-color:#57C3EC"
   id="stop8" />
					<stop
   offset="1"
   style="stop-color:#28B3E3"
   id="stop10" />
				</linearGradient>
				<path
   fill="url(#SVGID_1_)"
   d="m 261.033,57.682 c -0.057,0.01 -0.117,0.006 -0.174,0.016 l 0.301,-0.049 c -0.047,0.007 -0.08,0.027 -0.127,0.033 z"
   id="path13"
   style="fill:#a6a7aa;fill-opacity:1" />
				<linearGradient
   id="SVGID_2_"
   gradientUnits="userSpaceOnUse"
   x1="37.896"
   y1="18.169399"
   x2="37.896"
   y2="85.3536">
					<stop
   offset="0.2699"
   style="stop-color:#57C3EC"
   id="stop15" />
					<stop
   offset="1"
   style="stop-color:#28B3E3"
   id="stop17" />
				</linearGradient>
				<path
   fill="url(#SVGID_2_)"
   d="m 59.318,71.848 c 0,1.963 -0.704,3.648 -2.113,5.049 C 55.796,78.299 54.108,79 52.136,79 H 37.938 C 32.023,79 26.968,76.91 22.77,72.725 18.571,68.541 16.474,63.504 16.474,57.608 V 28.933 c 0,-2.021 0.699,-3.718 2.097,-5.095 1.398,-1.375 3.106,-2.064 5.122,-2.064 1.957,0 3.639,0.702 5.035,2.105 1.4,1.401 2.102,3.083 2.102,5.049 V 39.31 h 20.214 c 1.835,0 3.407,0.65 4.719,1.953 1.311,1.299 1.964,2.859 1.964,4.68 0,1.818 -0.653,3.38 -1.959,4.681 -1.306,1.299 -2.875,1.952 -4.702,1.952 H 30.829 v 5.025 c 0,1.971 0.688,3.645 2.071,5.025 1.381,1.377 3.058,2.066 5.031,2.066 h 14.202 c 1.971,0 3.663,0.703 5.072,2.105 1.409,1.402 2.113,3.088 2.113,5.051 z"
   id="path20"
   style="fill:#a6a7aa;fill-opacity:1" />
				<linearGradient
   id="SVGID_3_"
   gradientUnits="userSpaceOnUse"
   x1="208.0547"
   y1="18.169399"
   x2="208.0547"
   y2="85.3536">
					<stop
   offset="0.2699"
   style="stop-color:#57C3EC"
   id="stop22" />
					<stop
   offset="1"
   style="stop-color:#28B3E3"
   id="stop24" />
				</linearGradient>
				<path
   fill="url(#SVGID_3_)"
   d="m 225.602,71.848 c 0,1.963 -0.705,3.648 -2.113,5.049 C 222.08,78.299 220.393,79 218.42,79 h -6.449 c -5.914,0 -10.969,-2.09 -15.168,-6.275 -4.198,-4.184 -6.294,-9.221 -6.294,-15.117 V 28.933 c 0,-2.021 0.698,-3.718 2.097,-5.095 1.398,-1.375 3.106,-2.064 5.122,-2.064 1.957,0 3.639,0.702 5.035,2.105 1.4,1.401 2.102,3.083 2.102,5.049 V 39.31 h 12.465 c 1.834,0 3.406,0.652 4.717,1.953 1.312,1.299 1.965,2.859 1.965,4.68 0,1.818 -0.652,3.38 -1.959,4.681 -1.305,1.299 -2.875,1.95 -4.701,1.95 h -12.486 v 5.027 c 0,1.971 0.688,3.645 2.07,5.025 1.381,1.377 3.059,2.066 5.031,2.066 h 6.453 c 1.969,0 3.662,0.703 5.07,2.105 1.408,1.402 2.112,3.088 2.112,5.051 z"
   id="path27"
   style="fill:#a6a7aa;fill-opacity:1" />
				<linearGradient
   id="SVGID_4_"
   gradientUnits="userSpaceOnUse"
   x1="170.5181"
   y1="18.169399"
   x2="170.5181"
   y2="85.3536">
					<stop
   offset="0.2699"
   style="stop-color:#57C3EC"
   id="stop29" />
					<stop
   offset="1"
   style="stop-color:#28B3E3"
   id="stop31" />
				</linearGradient>
				<path
   fill="url(#SVGID_4_)"
   d="m 188.065,71.848 c 0,1.963 -0.705,3.648 -2.113,5.049 -1.408,1.402 -3.096,2.104 -5.068,2.104 h -6.449 c -5.915,0 -10.97,-2.09 -15.167,-6.275 -4.198,-4.184 -6.295,-9.221 -6.295,-15.117 V 28.933 c 0,-2.021 0.699,-3.718 2.097,-5.095 1.398,-1.375 3.105,-2.064 5.122,-2.064 1.956,0 3.639,0.702 5.034,2.105 1.4,1.401 2.102,3.083 2.102,5.049 V 39.31 h 12.465 c 1.835,0 3.407,0.652 4.717,1.953 1.312,1.299 1.965,2.859 1.965,4.68 0,1.818 -0.652,3.38 -1.959,4.681 -1.305,1.299 -2.875,1.95 -4.701,1.95 h -12.487 v 5.027 c 0,1.971 0.688,3.645 2.071,5.025 1.381,1.377 3.058,2.066 5.03,2.066 h 6.453 c 1.97,0 3.663,0.703 5.071,2.105 1.408,1.402 2.112,3.088 2.112,5.051 z"
   id="path34"
   style="fill:#a6a7aa;fill-opacity:1" />
				<linearGradient
   id="SVGID_5_"
   gradientUnits="userSpaceOnUse"
   x1="95.153801"
   y1="18.1689"
   x2="95.153801"
   y2="85.3536">
					<stop
   offset="0.2699"
   style="stop-color:#57C3EC"
   id="stop36" />
					<stop
   offset="1"
   style="stop-color:#28B3E3"
   id="stop38" />
				</linearGradient>
				<path
   fill="url(#SVGID_5_)"
   d="m 128.546,58.986 c 0,5.516 -1.961,10.23 -5.888,14.145 C 118.733,77.043 114.005,79 108.474,79 103.414,79 98.962,77.295 95.115,73.881 91.321,77.295 86.894,79 81.835,79 76.305,79 71.574,77.043 67.647,73.131 63.722,69.217 61.76,64.502 61.76,58.986 V 45.008 c 0,-1.893 0.657,-3.479 1.976,-4.766 1.313,-1.289 2.895,-1.932 4.736,-1.932 1.845,0 3.424,0.643 4.738,1.932 1.316,1.287 1.975,2.877 1.975,4.77 v 13.984 c 0,1.844 0.646,3.404 1.935,4.693 1.292,1.289 2.861,1.93 4.705,1.93 1.792,0 3.333,-0.641 4.624,-1.93 1.291,-1.289 1.935,-2.85 1.935,-4.693 V 45.09 c 0,-1.84 0.662,-3.428 1.979,-4.77 1.322,-1.338 2.933,-2.01 4.832,-2.01 1.845,0 3.428,0.657 4.749,1.973 1.321,1.312 1.98,2.891 1.98,4.729 v 13.984 c 0,1.844 0.646,3.404 1.937,4.693 1.289,1.289 2.833,1.93 4.623,1.93 1.845,0 3.414,-0.641 4.702,-1.93 1.292,-1.289 1.937,-2.85 1.937,-4.693 V 45.012 c 0,-1.838 0.659,-3.416 1.976,-4.729 1.315,-1.316 2.896,-1.973 4.736,-1.973 1.844,0 3.425,0.657 4.739,1.969 1.316,1.312 1.974,2.889 1.974,4.729 v 13.978 z"
   id="path41"
   style="fill:#a6a7aa;fill-opacity:1" />
				<linearGradient
   id="SVGID_6_"
   gradientUnits="userSpaceOnUse"
   x1="140.75929"
   y1="18.169399"
   x2="140.75929"
   y2="85.352402">
					<stop
   offset="0.2699"
   style="stop-color:#57C3EC"
   id="stop43" />
					<stop
   offset="1"
   style="stop-color:#28B3E3"
   id="stop45" />
				</linearGradient>
				<path
   fill="url(#SVGID_6_)"
   d="m 147.936,27.367 c 0,1.962 -0.702,3.646 -2.111,5.048 -1.408,1.402 -3.096,2.105 -5.064,2.105 -1.973,0 -3.66,-0.703 -5.069,-2.105 -1.404,-1.401 -2.108,-3.086 -2.108,-5.048 0,-1.965 0.704,-3.647 2.108,-5.049 1.409,-1.404 3.097,-2.104 5.069,-2.104 1.969,0 3.657,0.7 5.064,2.104 1.409,1.401 2.111,3.084 2.111,5.049 z"
   id="path48"
   style="fill:#a6a7aa;fill-opacity:1" />
				<linearGradient
   id="SVGID_7_"
   gradientUnits="userSpaceOnUse"
   x1="140.75929"
   y1="18.1689"
   x2="140.75929"
   y2="85.3536">
					<stop
   offset="0.2699"
   style="stop-color:#57C3EC"
   id="stop50" />
					<stop
   offset="1"
   style="stop-color:#28B3E3"
   id="stop52" />
				</linearGradient>
				<path
   fill="url(#SVGID_7_)"
   d="m 147.936,71.84 c 0,1.967 -0.702,3.652 -2.111,5.055 -1.408,1.404 -3.096,2.105 -5.065,2.105 -1.973,0 -3.66,-0.701 -5.069,-2.105 -1.404,-1.402 -2.108,-3.088 -2.108,-5.055 V 45.471 c 0,-1.967 0.704,-3.652 2.108,-5.055 1.409,-1.404 3.097,-2.106 5.069,-2.106 1.969,0 3.657,0.702 5.064,2.106 1.409,1.402 2.111,3.088 2.111,5.055 V 71.84 Z"
   id="path55"
   style="fill:#a6a7aa;fill-opacity:1" />
				<linearGradient
   id="SVGID_8_"
   gradientUnits="userSpaceOnUse"
   x1="292.77441"
   y1="18.167999"
   x2="292.77441"
   y2="85.353401">
					<stop
   offset="0.2699"
   style="stop-color:#57C3EC"
   id="stop57" />
					<stop
   offset="1"
   style="stop-color:#28B3E3"
   id="stop59" />
				</linearGradient>
				<path
   fill="url(#SVGID_8_)"
   d="m 310.957,45.945 c 0,1.82 -0.654,3.38 -1.963,4.683 -1.307,1.299 -2.875,1.95 -4.703,1.95 h -9.801 c -1.83,0 -3.385,0.639 -4.666,1.916 -1.283,1.275 -1.92,2.826 -1.92,4.652 v 13.209 c 0,1.822 -0.652,3.389 -1.957,4.689 -1.307,1.307 -2.871,1.955 -4.699,1.955 -1.826,0 -3.393,-0.648 -4.697,-1.953 -1.307,-1.301 -1.959,-2.863 -1.959,-4.688 V 59.156 c 0,-5.469 1.945,-10.143 5.838,-14.023 3.893,-3.879 8.584,-5.822 14.07,-5.822 h 9.793 c 1.83,0 3.396,0.652 4.703,1.953 1.307,1.301 1.961,2.861 1.961,4.681 z"
   id="path62"
   style="fill:#a6a7aa;fill-opacity:1" />
				<linearGradient
   id="SVGID_9_"
   gradientUnits="userSpaceOnUse"
   x1="248.8672"
   y1="18.1689"
   x2="248.8672"
   y2="85.3535">
					<stop
   offset="0.2699"
   style="stop-color:#57C3EC"
   id="stop64" />
					<stop
   offset="1"
   style="stop-color:#28B3E3"
   id="stop66" />
				</linearGradient>
				<path
   fill="url(#SVGID_9_)"
   d="m 248.068,79 c -5.648,0 -10.971,-2.146 -15.17,-6.438 -4.197,-4.295 -5.809,-8.971 -5.809,-15.021 0,0 -0.41,-19.241 21.35,-19.241 17.025,0 22.207,11.959 22.207,17.864 0,4.693 -2.146,6.359 -7.033,6.359 h -21.76 c 0,0 -0.787,4.979 9.125,4.979 h 12.418 c 3.176,0 5.748,2.574 5.748,5.75 0,3.174 -2.572,5.748 -5.748,5.748 z m -6.07,-25.643 h 14.287 c 0,-4.695 -7.105,-4.695 -7.105,-4.695 0,0 -7.182,0 -7.182,4.695 z"
   id="path69"
   style="fill:#a6a7aa;fill-opacity:1" />
			</g>
		</g>
	</g><rect
   y="0"
   fill="none"
   width="429"
   height="110"
   id="rect77"
   x="0"
   style="stroke-width:1.05767" />
</svg>
