<?xml version="1.0" encoding="UTF-8" standalone="no"?>
<svg
   viewBox="0 0 492 110"
   version="1.1"
   id="svg15"
   sodipodi:docname="youtube.svg"
   inkscape:export-filename="C:\Users\belov\Desktop\Prog.kiev Front-End\homeworks\homework-7 (full real mock-up)\Asentus\assets\icons\youtube_grey.png"
   inkscape:export-xdpi="200"
   inkscape:export-ydpi="200"
   inkscape:version="1.1 (c68e22c387, 2021-05-23)"
   xmlns:inkscape="http://www.inkscape.org/namespaces/inkscape"
   xmlns:sodipodi="http://sodipodi.sourceforge.net/DTD/sodipodi-0.dtd"
   xmlns:xlink="http://www.w3.org/1999/xlink"
   xmlns="http://www.w3.org/2000/svg"
   xmlns:svg="http://www.w3.org/2000/svg">
  <defs
     id="defs19" />
  <sodipodi:namedview
     id="namedview17"
     pagecolor="#ffffff"
     bordercolor="#666666"
     borderopacity="1.0"
     inkscape:pageshadow="2"
     inkscape:pageopacity="0.0"
     inkscape:pagecheckerboard="0"
     showgrid="false"
     inkscape:showpageshadow="false"
     borderlayer="true"
     inkscape:zoom="1.4745935"
     inkscape:cx="261.0889"
     inkscape:cy="49.505169"
     inkscape:window-width="1920"
     inkscape:window-height="986"
     inkscape:window-x="2869"
     inkscape:window-y="-11"
     inkscape:window-maximized="1"
     inkscape:current-layer="svg15"
     inkscape:snap-nodes="false"
     inkscape:snap-bbox="true"
     inkscape:bbox-nodes="true"
     inkscape:snap-page="true" />
  <g
     id="g833"
     transform="matrix(1.0076119,0,0,1.007326,-1.830571,-0.40293041)">
    <path
       d="M 154.3,17.5 A 19.6,19.6 0 0 0 140.5,3.7 C 128.4,0.4 79.7,0.4 79.7,0.4 79.7,0.4 31,0.5 18.9,3.8 A 19.6,19.6 0 0 0 5.1,17.6 C 1.44,39.1 0.02,71.86 5.2,92.5 A 19.6,19.6 0 0 0 19,106.3 c 12.1,3.3 60.8,3.3 60.8,3.3 0,0 48.7,0 60.8,-3.3 a 19.6,19.6 0 0 0 13.8,-13.8 c 3.86,-21.53 5.05,-54.27 -0.1,-75 z"
       fill="#ff0000"
       id="path2"
       style="mix-blend-mode:normal" />
    <path
       fill="#ffffff"
       d="M 64.2,78.4 104.6,55 64.2,31.6 Z"
       id="path4"
       style="mix-blend-mode:normal" />
    <g
       fill="#282828"
       id="g11"
       style="mix-blend-mode:normal">
      <path
         d="m 227.9,99.7 c -3.1,-2.1 -5.3,-5.3 -6.6,-9.7 -1.3,-4.4 -1.9,-10.2 -1.9,-17.5 v -9.9 c 0,-7.3 0.7,-13.3 2.2,-17.7 1.5,-4.5 3.8,-7.7 7,-9.7 3.2,-2 7.3,-3.1 12.4,-3.1 5,0 9.1,1 12.1,3.1 3,2.1 5.3,5.3 6.7,9.7 1.4,4.4 2.1,10.3 2.1,17.6 v 9.9 c 0,7.3 -0.7,13.1 -2.1,17.5 -1.4,4.4 -3.6,7.6 -6.7,9.7 -3.1,2 -7.3,3.1 -12.5,3.1 -5.4,0.1 -9.6,-1 -12.7,-3 z M 245.2,89 c 0.9,-2.2 1.3,-5.9 1.3,-10.9 V 56.8 c 0,-4.9 -0.4,-8.5 -1.3,-10.7 -0.9,-2.3 -2.4,-3.4 -4.5,-3.4 -2.1,0 -3.5,1.1 -4.4,3.4 -0.9,2.3 -1.3,5.8 -1.3,10.7 v 21.3 c 0,5 0.4,8.7 1.2,10.9 0.8,2.2 2.3,3.3 4.5,3.3 2.1,0 3.6,-1.1 4.5,-3.3 z M 464.4,72.7 v 3.5 l 0.4,9.9 c 0.3,2.2 0.8,3.8 1.6,4.8 0.8,1 2.1,1.5 3.8,1.5 2.3,0 3.9,-0.9 4.7,-2.7 0.9,-1.8 1.3,-4.8 1.4,-8.9 l 13.3,0.8 c 0.1,0.6 0.1,1.4 0.1,2.4 0,6.3 -1.7,11 -5.2,14.1 -3.5,3.1 -8.3,4.7 -14.6,4.7 -7.6,0 -12.9,-2.4 -15.9,-7.1 -3,-4.7 -4.6,-12.1 -4.6,-22 V 61.6 c 0.34,-17 3.33,-29.45 20.9,-29.5 5.3,0 9.3,1 12.1,2.9 2.8,1.9 4.8,4.9 6,9 1.2,4.1 1.7,9.7 1.7,16.9 v 11.7 h -25.7 z m 2,-28.8 c -0.8,1 -1.3,2.5 -1.6,4.7 -0.3,2.2 -0.4,10 -0.4,10 v 4.9 h 11.2 v -4.9 c 0,4.9 -0.1,-7.7 -0.4,-10 -0.3,-2.3 -0.8,-3.9 -1.6,-4.8 -0.8,-0.9 -2,-1.4 -3.6,-1.4 -1.7,0.1 -2.9,0.6 -3.6,1.5 z M 190.5,71.4 173,8.2 h 15.3 c 0,0 7.15,31.7 9.6,46.6 h 0.4 c 2.78,-15.82 9.8,-46.6 9.8,-46.6 h 15.3 l -17.7,63.1 v 30.3 H 190.6 V 71.4 Z"
         id="path6" />
      <path
         id="A"
         d="m 311.5,33.4 v 68.3 h -12 l -1.3,-8.4 h -0.3 c -3.3,6.3 -8.2,9.5 -14.7,9.5 -11.77,-0.03 -13.08,-10 -13.2,-18.4 v -51 h 15.4 v 50.1 c 0,3 0.3,5.2 1,6.5 1.42,2.78 5.1,2.07 7.1,0.7 a 8,8 0 0 0 2.7,-3.1 V 33.4 Z"
         fill="#282828" />
      <path
         d="M 353.3,20.6 H 338 v 81.1 H 323 V 20.6 H 307.7 V 8.2 h 45.5 v 12.4 z m 87.9,23.7 C 440.3,40 438.8,36.9 436.7,34.9 434.6,33 431.8,32 428.1,32 a 14.1,14.1 0 0 0 -7.9,2.4 c -2.5,1.6 -4.3,3.7 -5.7,6.3 h -0.1 v -36 h -14.8 v 96.9 h 12.7 l 1.6,-6.5 h 0.3 a 14,14 0 0 0 5.3,5.5 c 2.4,1.3 5,2 7.9,2 5.2,0 9,-2.4 11.5,-7.2 2.4,-4.8 3.7,-12.3 3.7,-22.4 V 62.2 c 0,-7.6 -0.5,-13.6 -1.4,-17.9 z m -14.1,27.9 c 0,5 -0.2,8.9 -0.6,11.7 -0.4,2.8 -1.1,4.8 -2.1,6 -1,1.2 -2.3,1.8 -3.9,1.8 -3.1,-0.1 -4.86,-1.5 -6.1,-3.6 V 49.3 c 0.5,-1.9 1.4,-3.4 2.7,-4.6 2.2,-2.47 5.96,-2.5 7.7,0 0.9,1.2 1.4,3.3 1.8,6.2 0.3,2.9 0.5,7 0.5,12.4 z"
         id="path9" />
    </g>
  </g>
  <use
     xlink:href="#A"
     x="78.900002"
     id="use13"
     style="mix-blend-mode:normal"
     y="0"
     width="100%"
     height="100%" />
</svg>
